<svg width="12" height="15" viewBox="0 0 12 15" fill="none" xmlns="http://www.w3.org/2000/svg">
<path d="M4.16671 6.16667C4.16671 4.97005 5.13676 4 6.33337 4C7.52999 4 8.50004 4.97005 8.50004 6.16667C8.50004 7.36328 7.52999 8.33333 6.33337 8.33333C5.13676 8.33333 4.16671 7.36328 4.16671 6.16667Z" fill="#343A42"/>
<path fill-rule="evenodd" clip-rule="evenodd" d="M0.849069 5.41826C1.07816 2.63896 3.40069 0.5 6.18941 0.5H6.47737C9.26609 0.5 11.5886 2.63896 11.8177 5.41826C11.9411 6.91466 11.4788 8.40052 10.5284 9.56288C9.6319 10.6593 7.33337 13.1667 6.33337 14.1667C5.33337 13.1667 3.03488 10.6593 2.13839 9.56288C1.18795 8.40052 0.725724 6.91466 0.849069 5.41826ZM6.33337 3C4.58447 3 3.16671 4.41776 3.16671 6.16667C3.16671 7.91557 4.58447 9.33333 6.33337 9.33333C8.08228 9.33333 9.50004 7.91557 9.50004 6.16667C9.50004 4.41776 8.08228 3 6.33337 3Z" fill="#343A42"/>
</svg>
