<svg width="100" height="100" viewBox="0 0 100 100" fill="none" xmlns="http://www.w3.org/2000/svg">
<path d="M92.5001 20V38.48C92.5001 67.78 74.9001 78.405 50.0001 90.08C25.1001 78.405 7.50006 67.78 7.50006 38.48V20H12.0481V38.48C12.0481 44.98 12.9351 50.508 14.7581 55.371C16.4271 59.822 18.9011 63.739 22.3221 67.343C29.1711 74.562 39.5001 80.04 49.6501 84.884C49.7594 84.936 49.879 84.963 50.0001 84.963C50.1212 84.963 50.2407 84.936 50.3501 84.884C60.5001 80.04 70.8291 74.562 77.6781 67.343C81.0991 63.743 83.5781 59.822 85.2421 55.371C87.0651 50.508 87.9521 44.982 87.9521 38.48V20H92.5001Z" fill="#343A42"/>
<path d="M13.672 20V38.48C13.672 44.78 14.524 50.122 16.278 54.801C17.87 59.045 20.232 62.781 23.501 66.226C30.089 73.171 40.109 78.516 50.001 83.251C59.892 78.516 69.912 73.171 76.501 66.226C79.77 62.781 82.132 59.045 83.724 54.801C85.478 50.122 86.33 44.784 86.33 38.48V20H13.672ZM61.852 47.24L44.144 71.62C44.0392 71.7642 43.89 71.8698 43.7192 71.9207C43.5484 71.9717 43.3657 71.965 43.1991 71.9018C43.0325 71.8385 42.8913 71.7223 42.7973 71.5709C42.7033 71.4195 42.6618 71.2414 42.679 71.064L43.971 57.889L38.833 58.064C38.7067 58.0682 38.5812 58.0429 38.4664 57.9901C38.3516 57.9373 38.2507 57.8584 38.1716 57.7598C38.0926 57.6612 38.0377 57.5455 38.0112 57.422C37.9847 57.2984 37.9874 57.1704 38.019 57.048L43.619 35.448C43.6507 35.3254 43.7107 35.2119 43.7943 35.1168C43.8778 35.0216 43.9825 34.9474 44.1 34.9L60.892 28.112C61.0375 28.0534 61.1968 28.0381 61.3508 28.0681C61.5048 28.098 61.6468 28.172 61.7596 28.2809C61.8725 28.3898 61.9514 28.5291 61.9868 28.682C62.0221 28.8348 62.0125 28.9946 61.959 29.142L55.085 48.088L60.921 46C61.0844 45.9413 61.2624 45.9366 61.4287 45.9865C61.5951 46.0364 61.741 46.1383 61.8452 46.2772C61.9493 46.4162 62.0062 46.5848 62.0074 46.7585C62.0086 46.9321 61.9542 47.1016 61.852 47.242V47.24Z" fill="#343A42"/>
<path d="M7.50006 9.84198H92.5001V18.373H7.50006V9.84198Z" fill="#343A42"/>
<path d="M54.0051 50.2L58.9921 48.414L44.5921 68.247L45.6821 57.126C45.6933 57.0132 45.6807 56.8993 45.6452 56.7917C45.6097 56.6841 45.552 56.5851 45.4759 56.5012C45.3997 56.4172 45.3068 56.3502 45.2032 56.3043C45.0996 56.2585 44.9875 56.2349 44.8741 56.235H44.8471L39.8641 56.4L45.0861 36.248L59.8101 30.3L52.9681 49.158C52.9154 49.3029 52.905 49.4599 52.9383 49.6104C52.9715 49.761 53.0469 49.8991 53.1557 50.0084C53.2644 50.1177 53.4021 50.1938 53.5525 50.2277C53.703 50.2616 53.86 50.252 54.0051 50.2Z" fill="#343A42"/>
</svg>
