<svg width="79" height="48" viewBox="0 0 79 48" fill="none" xmlns="http://www.w3.org/2000/svg">
<g filter="url(#filter0_d_61_512)">
<path d="M12.2165 0.5H22.4339L12.5867 38.5062H38.5005L36.2052 47.5H0L12.2165 0.5Z" fill="#C7FF00"/>
<path fill-rule="evenodd" clip-rule="evenodd" d="M55.0112 0.5H29.6898L35.8351 16.892H31.6148L47.6814 38.5062L50.1987 47.5H55.0112C68.2599 47.5 79 36.9787 79 24C79 11.0213 68.2599 0.5 55.0112 0.5ZM47.6814 38.5062L43.7573 24H48.2737L43.0169 9.49383H55.0112V9.51164C62.8454 9.88955 69.0787 16.2317 69.0787 24C69.0787 31.7683 62.8454 38.1104 55.0112 38.4884V38.5062H47.6814Z" fill="#C7FF00"/>
</g>
<defs>
<filter id="filter0_d_61_512" x="0" y="0.5" width="79" height="47" filterUnits="userSpaceOnUse" color-interpolation-filters="sRGB">
<feFlood flood-opacity="0" result="BackgroundImageFix"/>
<feColorMatrix in="SourceAlpha" type="matrix" values="0 0 0 0 0 0 0 0 0 0 0 0 0 0 0 0 0 0 127 0" result="hardAlpha"/>
<feOffset/>
<feComposite in2="hardAlpha" operator="out"/>
<feColorMatrix type="matrix" values="0 0 0 0 0.555379 0 0 0 0 0.711667 0 0 0 0 0 0 0 0 1 0"/>
<feBlend mode="normal" in2="BackgroundImageFix" result="effect1_dropShadow_61_512"/>
<feBlend mode="normal" in="SourceGraphic" in2="effect1_dropShadow_61_512" result="shape"/>
</filter>
</defs>
</svg>
