<svg width="101" height="100" viewBox="0 0 101 100" fill="none" xmlns="http://www.w3.org/2000/svg">
<path d="M59.5334 72.506V13.5C59.5321 12.4284 59.1058 11.4011 58.3481 10.6433C57.5904 9.88561 56.563 9.45933 55.4914 9.45801H11.8744C10.803 9.4596 9.77594 9.88599 9.01842 10.6437C8.2609 11.4014 7.83476 12.4286 7.83344 13.5V72.506C7.83476 73.5773 8.26093 74.6044 9.01848 75.362C9.77603 76.1195 10.8031 76.5457 11.8744 76.547H55.4884C56.5605 76.5467 57.5886 76.121 58.347 75.3634C59.1054 74.6057 59.5321 73.578 59.5334 72.506ZM11.2524 44.034V13.691C11.2527 13.4756 11.3385 13.269 11.4909 13.1168C11.6433 12.9645 11.85 12.879 12.0654 12.879H55.2984C55.5137 12.8793 55.7201 12.9649 55.8723 13.1171C56.0245 13.2694 56.1102 13.4757 56.1104 13.691V44.034C56.1104 44.2494 56.0249 44.4559 55.8726 44.6082C55.7203 44.7605 55.5138 44.846 55.2984 44.846H12.0654C11.9587 44.8461 11.853 44.8252 11.7544 44.7845C11.6558 44.7437 11.5661 44.6839 11.4906 44.6085C11.4151 44.5331 11.3552 44.4436 11.3143 44.345C11.2735 44.2464 11.2524 44.1407 11.2524 44.034ZM20.3984 57.039C20.3982 57.2543 20.3125 57.4607 20.1603 57.6129C20.0081 57.7651 19.8017 57.8507 19.5864 57.851H12.4494C12.2342 57.8507 12.0278 57.7651 11.8756 57.6129C11.7233 57.4607 11.6377 57.2543 11.6374 57.039V49.9C11.6377 49.6847 11.7233 49.4784 11.8756 49.3261C12.0278 49.1739 12.2342 49.0883 12.4494 49.088H19.5864C19.8017 49.0883 20.0081 49.1739 20.1603 49.3261C20.3125 49.4784 20.3982 49.6847 20.3984 49.9V57.039ZM40.1634 69.73C38.3113 71.5827 35.874 72.7357 33.267 72.9927C30.66 73.2496 28.0445 72.5946 25.8663 71.1392C23.6881 69.6838 22.082 67.5181 21.3217 65.0111C20.5615 62.5042 20.694 59.8112 21.6969 57.3911C22.6997 54.971 24.5108 52.9735 26.8214 51.7391C29.132 50.5046 31.7991 50.1097 34.3683 50.6214C36.9375 51.1332 39.2498 52.5201 40.911 54.5457C42.5722 56.5713 43.4795 59.1103 43.4784 61.73C43.479 63.2159 43.1865 64.6874 42.6177 66.0602C42.0488 67.4329 41.2148 68.68 40.1634 69.73ZM47.7784 57.851C47.6717 57.8511 47.566 57.8302 47.4674 57.7895C47.3688 57.7487 47.2791 57.6889 47.2036 57.6135C47.1281 57.5381 47.0682 57.4486 47.0273 57.35C46.9865 57.2514 46.9654 57.1457 46.9654 57.039V49.9C46.9654 49.7933 46.9865 49.6876 47.0273 49.589C47.0682 49.4905 47.1281 49.4009 47.2036 49.3255C47.2791 49.2501 47.3688 49.1903 47.4674 49.1495C47.566 49.1088 47.6717 49.0879 47.7784 49.088H54.9144C55.1298 49.088 55.3363 49.1736 55.4886 49.3258C55.6409 49.4781 55.7264 49.6847 55.7264 49.9V57.038C55.7264 57.2534 55.6409 57.4599 55.4886 57.6122C55.3363 57.7645 55.1298 57.85 54.9144 57.85L47.7784 57.851Z" fill="white"/>
<path d="M54.4865 14.5H12.8775V43.222H54.4865V14.5ZM51.7745 39.7C51.7742 39.9153 51.6886 40.1217 51.5363 40.2739C51.3841 40.4261 51.1777 40.5117 50.9625 40.512H16.4015C16.1862 40.5117 15.9798 40.4261 15.8276 40.2739C15.6754 40.1217 15.5897 39.9153 15.5895 39.7V35.307C15.5874 33.1785 15.9629 31.0664 16.6985 29.069C16.7046 29.0449 16.7123 29.0212 16.7215 28.998C16.7297 28.9751 16.7394 28.9527 16.7505 28.931C17.4625 27.0488 18.4838 25.2987 19.7725 23.753C19.7936 23.7177 19.8177 23.6842 19.8445 23.653C19.8701 23.6218 19.8982 23.5928 19.9285 23.566C21.2185 22.0556 22.747 20.7666 24.4535 19.75C24.4835 19.728 24.5165 19.705 24.5535 19.685C24.5857 19.6664 24.6191 19.6501 24.6535 19.636C26.4402 18.6016 28.3917 17.8828 30.4225 17.511H30.4335C32.5793 17.1217 34.7776 17.1217 36.9235 17.511H36.9335H36.9445C38.9752 17.8828 40.9268 18.6016 42.7135 19.636C42.7479 19.6499 42.7814 19.6662 42.8135 19.685C42.8436 19.7033 42.8727 19.7233 42.9005 19.745C44.6101 20.762 46.1414 22.0525 47.4335 23.565C47.4624 23.5904 47.4891 23.6182 47.5135 23.648C47.5381 23.6773 47.5605 23.7083 47.5805 23.741C48.8716 25.2876 49.8948 27.0395 50.6075 28.924C50.6185 28.946 50.6285 28.968 50.6375 28.991C50.6465 29.014 50.6535 29.038 50.6595 29.062C51.3951 31.0594 51.7705 33.1715 51.7685 35.3L51.7745 39.7Z" fill="white"/>
<path d="M48.7144 35.3069C48.7147 35.0917 48.8003 34.8853 48.9525 34.7331C49.1048 34.5808 49.3111 34.4952 49.5264 34.4949H50.1264C50.0591 33.08 49.8077 31.6799 49.3784 30.3299L48.8164 30.5389C48.7263 30.5728 48.6307 30.5901 48.5344 30.5899C48.344 30.5901 48.1595 30.5233 48.0133 30.4013C47.8671 30.2792 47.7684 30.1097 47.7346 29.9222C47.7007 29.7348 47.7339 29.5414 47.8282 29.3759C47.9225 29.2105 48.0719 29.0834 48.2504 29.0169L48.8104 28.8089C48.277 27.5722 47.5939 26.4054 46.7764 25.3349L46.3214 25.7199C46.1567 25.8588 45.9436 25.9265 45.729 25.9082C45.5143 25.8899 45.3158 25.7871 45.1769 25.6224C45.0381 25.4577 44.9704 25.2446 44.9886 25.03C45.0069 24.8154 45.1097 24.6168 45.2744 24.4779L45.7334 24.0999C44.824 23.1216 43.7992 22.2572 42.6814 21.5259L42.3814 22.0399C42.3296 22.1359 42.259 22.2205 42.1738 22.2886C42.0887 22.3567 41.9906 22.4069 41.8856 22.4363C41.7806 22.4657 41.6707 22.4736 41.5625 22.4596C41.4544 22.4456 41.3501 22.41 41.2561 22.3548C41.162 22.2996 41.08 22.2261 41.0149 22.1385C40.9499 22.051 40.9032 21.9512 40.8776 21.8452C40.8519 21.7392 40.8479 21.6291 40.8658 21.5215C40.8836 21.4139 40.9229 21.311 40.9814 21.2189L41.2814 20.7039C40.0642 20.0661 38.7713 19.5847 37.4334 19.2709L37.3334 19.8629C37.2992 20.0502 37.2005 20.2195 37.0543 20.3414C36.9081 20.4633 36.7238 20.53 36.5334 20.5299C36.4841 20.5302 36.4348 20.5255 36.3864 20.5159C36.1747 20.4773 35.987 20.3561 35.8645 20.1791C35.7421 20.0021 35.6949 19.7837 35.7334 19.5719L35.8414 18.9789C34.4088 18.7923 32.958 18.7923 31.5254 18.9789L31.6324 19.5719C31.6515 19.6769 31.6497 19.7845 31.6271 19.8888C31.6045 19.993 31.5617 20.0917 31.501 20.1794C31.4402 20.2671 31.3628 20.3419 31.2732 20.3996C31.1835 20.4574 31.0834 20.4969 30.9784 20.5159C30.9304 20.5255 30.8814 20.5302 30.8324 20.5299C30.642 20.5302 30.4576 20.4635 30.3114 20.3416C30.1652 20.2197 30.0664 20.0503 30.0324 19.8629L29.9244 19.2709C28.5896 19.5843 27.2994 20.0644 26.0844 20.6999L26.3844 21.2149C26.4429 21.307 26.4822 21.4099 26.5001 21.5175C26.5179 21.6251 26.5139 21.7352 26.4883 21.8412C26.4627 21.9472 26.4159 22.047 26.3509 22.1345C26.2859 22.2221 26.2039 22.2956 26.1098 22.3508C26.0157 22.406 25.9115 22.4416 25.8033 22.4556C25.6952 22.4696 25.5853 22.4617 25.4803 22.4323C25.3752 22.4029 25.2772 22.3527 25.192 22.2846C25.1068 22.2165 25.0362 22.1319 24.9844 22.0359L24.6844 21.5219C23.5668 22.2546 22.5423 23.1203 21.6334 24.0999L22.0884 24.4829C22.2531 24.6218 22.3559 24.8204 22.3742 25.035C22.3925 25.2496 22.3248 25.4627 22.1859 25.6274C22.0471 25.7921 21.8485 25.8949 21.6339 25.9132C21.4192 25.9315 21.2061 25.8638 21.0414 25.7249L20.5864 25.3409C19.7693 26.4111 19.0865 27.5775 18.5534 28.8139L19.1124 29.0219C19.2124 29.0592 19.304 29.1157 19.3821 29.1884C19.4601 29.261 19.5232 29.3483 19.5675 29.4453C19.6118 29.5423 19.6366 29.6471 19.6405 29.7536C19.6443 29.8602 19.6272 29.9665 19.5899 30.0664C19.5527 30.1664 19.4961 30.258 19.4235 30.3361C19.3509 30.4142 19.2636 30.4772 19.1666 30.5215C19.0696 30.5659 18.9648 30.5907 18.8582 30.5945C18.7517 30.5984 18.6454 30.5812 18.5454 30.5439L17.9844 30.3349C17.5542 31.6847 17.3017 33.0849 17.2334 34.4999H17.8334C18.0488 34.4999 18.2553 34.5855 18.4076 34.7378C18.5599 34.8901 18.6454 35.0966 18.6454 35.3119C18.6454 35.5273 18.5599 35.7338 18.4076 35.8861C18.2553 36.0384 18.0488 36.1239 17.8334 36.1239H17.2134V38.8919H30.4834C30.1697 38.4658 29.9446 37.981 29.8214 37.4664C29.6981 36.9517 29.6793 36.4176 29.766 35.8956C29.8527 35.3735 30.0432 34.8742 30.3261 34.427C30.6091 33.9798 30.9788 33.5938 31.4134 33.2919L32.8784 23.4919C32.9066 23.2989 33.0033 23.1225 33.1508 22.9949C33.2983 22.8673 33.4869 22.7971 33.6819 22.7971C33.877 22.7971 34.0655 22.8673 34.2131 22.9949C34.3606 23.1225 34.4573 23.2989 34.4854 23.4919L35.9504 33.2919C36.3851 33.5938 36.7548 33.9798 37.0377 34.427C37.3207 34.8742 37.5111 35.3735 37.5978 35.8956C37.6845 36.4176 37.6657 36.9517 37.5425 37.4664C37.4193 37.981 37.1941 38.4658 36.8804 38.8919H50.1504V36.1189H49.5264C49.3111 36.1189 49.1045 36.0334 48.9523 35.8811C48.8 35.7288 48.7144 35.5223 48.7144 35.3069Z" fill="white"/>
<path d="M35.8628 37.4482C36.3584 36.2526 35.7909 34.8815 34.5952 34.3859C33.3996 33.8903 32.0285 34.4578 31.5329 35.6535C31.0373 36.8491 31.6048 38.2202 32.8005 38.7158C33.9962 39.2114 35.3672 38.6439 35.8628 37.4482Z" fill="white"/>
<path d="M34.2065 32.611L33.6825 29.1L33.1585 32.609C33.5063 32.5623 33.8588 32.5623 34.2065 32.609V32.611Z" fill="white"/>
<path d="M27.7065 70.337C29.5342 71.2789 31.6139 71.6158 33.6455 71.2988C35.677 70.9819 37.5553 70.0276 39.0092 68.5737C40.4631 67.1198 41.4174 65.2415 41.7343 63.2099C42.0513 61.1784 41.7145 59.0987 40.7725 57.271L27.7065 70.337Z" fill="white"/>
<path d="M39.0146 54.875C38.705 54.5644 38.3746 54.2754 38.0256 54.0099L24.4426 67.593C24.7085 67.9419 24.9975 68.2726 25.3076 68.583C25.6176 68.8934 25.9488 69.1821 26.2986 69.4469L39.8806 55.865C39.6146 55.5158 39.3252 55.185 39.0146 54.875Z" fill="white"/>
<path d="M32.1614 52.036C30.4981 52.0375 28.8631 52.4668 27.4136 53.2824C25.964 54.0981 24.7485 55.2729 23.8839 56.6938C23.0193 58.1147 22.5346 59.7341 22.4764 61.3964C22.4181 63.0587 22.7883 64.708 23.5514 66.186L36.6194 53.118C35.2422 52.4037 33.7128 52.0325 32.1614 52.036Z" fill="white"/>
<path d="M13.2614 50.713H18.7744V56.227H13.2614V50.713Z" fill="white"/>
<path d="M48.5905 50.713H54.1035V56.227H48.5905V50.713Z" fill="white"/>
<path d="M46.8974 86.644H73.2184C73.5773 86.6435 73.9214 86.5007 74.1752 86.2469C74.4291 85.9931 74.5719 85.649 74.5724 85.29V47.382H71.8654V83.937H48.2514V81.891H45.5444V85.291C45.5449 85.6497 45.6876 85.9935 45.9413 86.2472C46.1949 86.5008 46.5387 86.6435 46.8974 86.644Z" fill="white"/>
<path d="M88.2085 89.835H33.5155V81.891H30.8085V91.191C30.8088 91.5499 30.9514 91.894 31.205 92.1478C31.4587 92.4016 31.8027 92.5445 32.1615 92.545H89.5615C89.9204 92.5445 90.2643 92.4016 90.518 92.1478C90.7716 91.894 90.9142 91.5499 90.9145 91.191V47.382H88.2085V89.835Z" fill="white"/>
<path d="M30.7524 78.171H33.5094V80.809H30.7524V78.171Z" fill="white"/>
<path d="M45.5305 78.171H48.2875V80.809H45.5305V78.171Z" fill="white"/>
<path d="M69.9474 32.975H76.4894V46.3H69.9474V32.975Z" fill="white"/>
<path d="M73.2184 25.406L71.2864 31.35H75.1504L73.2184 25.406Z" fill="white"/>
<path d="M86.2926 32.975H92.8336V46.3H86.2926V32.975Z" fill="white"/>
<path d="M89.5625 25.406L87.6305 31.35H91.4945L89.5625 25.406Z" fill="white"/>
</svg>
