<svg width="100" height="100" viewBox="0 0 100 100" fill="none" xmlns="http://www.w3.org/2000/svg">
<path d="M15.1492 57.3152H84.5751C86.478 57.3152 88.0219 55.7713 88.0219 53.8804C88.0219 51.9775 86.478 50.4336 84.5751 50.4336H15.1492C13.2463 50.4456 11.7024 51.9894 11.7024 53.8804C11.7024 55.7713 13.2463 57.3152 15.1492 57.3152Z" fill="#343A42"/>
<path d="M58.4255 16.0129C58.4136 15.977 58.4136 15.9291 58.4255 15.8813V14.6964C58.4255 13.2244 57.2287 12.0156 55.7447 12.0156H43.9803C42.4962 12.0156 41.2994 13.2244 41.2994 14.6964V49.2239H58.4255V16.0129Z" fill="#343A42"/>
<path d="M82.0617 67.966C81.9181 67.5591 81.7386 67.1761 81.5231 66.8051C81.4154 66.6016 81.2838 66.4221 81.1521 66.2426C80.9487 65.9554 80.7332 65.7041 80.4819 65.4527C80.3263 65.2852 80.1349 65.1176 79.9434 64.974C79.8476 64.8902 79.7279 64.8184 79.6202 64.7347C79.5484 64.6628 79.4646 64.615 79.3689 64.5671C79.2971 64.5073 79.2133 64.4594 79.1176 64.4235C78.6389 64.1243 78.1123 63.9089 77.5617 63.7533C77.3942 63.7054 77.2266 63.6695 77.0591 63.6336C76.9035 63.5977 76.736 63.5738 76.5804 63.5618C76.3051 63.5139 76.0418 63.502 75.7666 63.502H24.2446C21.3364 63.502 18.8471 65.3809 17.9495 67.978C17.9375 68.0498 17.9016 68.1096 17.8777 68.1814C17.6742 68.8157 17.5785 69.4739 17.5785 70.1681V81.3461C17.5785 82.0403 17.6742 82.6985 17.8777 83.3208C17.9256 83.3927 17.9495 83.4764 17.9615 83.5722C18.871 86.1572 21.3484 88.0003 24.2446 88.0003H36.8708C39.0609 88.0003 41.1074 86.9232 42.3521 85.14L43.3454 83.7158C44.8893 81.4778 47.4265 80.1613 50.1313 80.1613C52.8958 80.1613 55.457 81.5137 57.0008 83.8115L57.8266 85.0442C59.0713 86.8993 61.1298 88.0003 63.3678 88.0003H75.7666C78.6628 88.0003 81.1521 86.1213 82.0497 83.5363C82.0617 83.5004 82.0737 83.4525 82.0856 83.4166C82.313 82.7703 82.4207 82.0762 82.4207 81.3581V70.1801C82.4207 69.45 82.313 68.7559 82.0976 68.1096C82.0737 68.0498 82.0737 68.0139 82.0617 67.966Z" fill="#343A42"/>
<path d="M16.37 70.1565C16.37 69.582 16.4298 69.0076 16.5495 68.457H11.7145V83.034H16.5615C16.4298 82.4954 16.358 81.909 16.358 81.3345V70.1565H16.37Z" fill="#343A42"/>
<path d="M83.4622 68.457C83.5819 69.0076 83.6418 69.582 83.6418 70.1565V81.3345C83.6418 81.909 83.5819 82.4954 83.4383 83.034H88.2973V68.457H83.4622Z" fill="#343A42"/>
<path d="M34.8121 18.8008C23.287 24.3778 15.6036 36.0944 15.3762 49.2352H34.8121V18.8008Z" fill="#343A42"/>
<path d="M40.0787 16.7559C38.6904 17.1628 37.3381 17.6535 36.0455 18.2399V49.2248H40.0787V16.7559Z" fill="#343A42"/>
<path d="M63.0685 17.9766C61.9675 17.4979 60.8185 17.1029 59.6457 16.7559V49.2248H63.0805V17.9766H63.0685Z" fill="#343A42"/>
<path d="M64.2894 18.4902V49.2358H84.3357C84.1083 35.8557 76.1496 23.9596 64.2894 18.4902Z" fill="#343A42"/>
</svg>
