<svg width="101" height="100" viewBox="0 0 101 100" fill="none" xmlns="http://www.w3.org/2000/svg">
<path d="M80.9823 19.351C64.0823 2.45099 36.5823 2.45099 19.6823 19.351C2.78231 36.251 2.78231 63.751 19.6823 80.651C36.5823 97.551 64.0823 97.551 80.9823 80.651C97.8823 63.751 97.8813 36.252 80.9823 19.351ZM75.9883 80.265V80.287C75.9883 80.311 75.9813 80.334 75.9773 80.356C75.9733 80.378 75.9773 80.38 75.9693 80.392C75.9613 80.404 75.9623 80.417 75.9593 80.429V80.442C75.953 80.463 75.9457 80.4837 75.9373 80.504C75.938 80.507 75.938 80.51 75.9373 80.513V80.522C75.9289 80.5429 75.9192 80.5633 75.9083 80.583C75.8941 80.611 75.8781 80.6381 75.8603 80.664C75.8492 80.6812 75.8368 80.6976 75.8233 80.713C75.8045 80.7385 75.7834 80.7623 75.7603 80.784L75.7503 80.794C75.735 80.8091 75.719 80.8235 75.7023 80.837C75.7007 80.8374 75.699 80.8374 75.6973 80.837C72.1718 83.7539 68.1662 86.0358 63.8593 87.581C55.6319 90.5529 46.656 90.74 38.3119 88.1136C29.9678 85.4871 22.7174 80.1925 17.6756 73.0439C12.6338 65.8952 10.0797 57.2884 10.4062 48.5468C10.7326 39.8051 13.9214 31.4127 19.4823 24.66L19.4933 24.647C19.5063 24.6307 19.5203 24.6154 19.5353 24.601C19.5423 24.5927 19.55 24.585 19.5583 24.578C19.5765 24.5591 19.5962 24.5417 19.6173 24.526C19.6327 24.5125 19.6491 24.5001 19.6663 24.489C19.6922 24.4712 19.7193 24.4552 19.7473 24.441C19.7671 24.4301 19.7874 24.4205 19.8083 24.412H19.8173C19.8203 24.4113 19.8234 24.4113 19.8263 24.412C19.8403 24.407 19.8543 24.401 19.8683 24.397L19.8883 24.39H19.9013C19.9133 24.39 19.9253 24.382 19.9383 24.38L19.9743 24.372L20.0433 24.361H20.0653H20.1323H20.2023C20.2208 24.3619 20.2392 24.3643 20.2573 24.368C20.2756 24.3699 20.2937 24.3736 20.3113 24.379C20.3253 24.3802 20.3391 24.3832 20.3523 24.388C20.3676 24.3917 20.3826 24.3964 20.3973 24.402C20.404 24.4032 20.4105 24.4055 20.4163 24.409C20.4326 24.4145 20.4487 24.4208 20.4643 24.428L20.4833 24.437C20.5019 24.4451 20.5199 24.4545 20.5373 24.465C20.5588 24.4763 20.5795 24.489 20.5993 24.503C20.6201 24.5169 20.6402 24.5319 20.6593 24.548L20.6953 24.58L20.7053 24.59C20.71 24.5928 20.7141 24.5966 20.7173 24.601L20.7283 24.613L30.8633 34.729L30.9083 34.773L44.7083 48.573L67.3593 71.225L67.3923 71.257L75.7333 79.6L75.7453 79.611C75.7497 79.6142 75.7535 79.6183 75.7563 79.623L75.7663 79.633L75.7983 79.669C75.8144 79.6881 75.8294 79.7082 75.8433 79.729C75.8573 79.7488 75.87 79.7695 75.8813 79.791C75.8918 79.8083 75.9012 79.8264 75.9093 79.845C75.9129 79.851 75.9159 79.8574 75.9183 79.864C75.9255 79.88 75.9319 79.8963 75.9373 79.913C75.9408 79.9185 75.9431 79.9246 75.9443 79.931C75.9499 79.9457 75.9546 79.9607 75.9583 79.976C75.9631 79.9892 75.9661 80.003 75.9673 80.017C75.9727 80.0346 75.9764 80.0527 75.9783 80.071C75.9821 80.0891 75.9845 80.1075 75.9853 80.126V80.196C75.9853 80.196 75.9903 80.243 75.9883 80.265ZM81.1813 75.344C81.1619 75.3693 81.1405 75.3931 81.1173 75.415C81.1141 75.4194 81.11 75.4232 81.1053 75.426C81.0903 75.4414 81.0743 75.4558 81.0573 75.469C81.014 75.5059 80.9667 75.5377 80.9163 75.564C80.8983 75.573 80.8783 75.583 80.8583 75.591C80.8241 75.6063 80.7886 75.6187 80.7523 75.628C80.732 75.6344 80.7113 75.6394 80.6903 75.643C80.6593 75.649 80.6283 75.653 80.5973 75.656H80.5343H80.4633C80.4471 75.6551 80.4311 75.6528 80.4153 75.649C80.3978 75.6479 80.3804 75.6452 80.3633 75.641C80.3453 75.6381 80.3276 75.6337 80.3103 75.628C80.299 75.6252 80.288 75.6216 80.2773 75.617C80.2653 75.6141 80.2536 75.61 80.2423 75.605C80.2306 75.6019 80.2192 75.5975 80.2083 75.592C80.1956 75.588 80.1835 75.5822 80.1723 75.575C80.1586 75.5688 80.1452 75.5618 80.1323 75.554C80.1271 75.5523 80.1224 75.5496 80.1183 75.546C80.1007 75.5366 80.0837 75.5263 80.0673 75.515C80.0463 75.5 80.0263 75.486 80.0063 75.469C79.9897 75.4557 79.974 75.4414 79.9593 75.426C79.955 75.4235 79.9512 75.4201 79.9483 75.416L24.9183 20.387C24.8996 20.3687 24.8819 20.3493 24.8653 20.329C24.8492 20.3099 24.8342 20.2898 24.8203 20.269C24.8063 20.2492 24.7937 20.2284 24.7823 20.207C24.771 20.1901 24.7616 20.172 24.7543 20.153C24.7507 20.147 24.7477 20.1406 24.7453 20.134C24.7381 20.1183 24.7318 20.1023 24.7263 20.086C24.7228 20.0801 24.7205 20.0737 24.7193 20.067C24.7137 20.0523 24.7091 20.0373 24.7053 20.022C24.7015 20.0085 24.6985 19.9948 24.6963 19.981C24.6909 19.9634 24.6872 19.9453 24.6853 19.927C24.6816 19.9089 24.6792 19.8905 24.6783 19.872C24.6783 19.848 24.6783 19.825 24.6783 19.802C24.6783 19.779 24.6783 19.757 24.6783 19.735C24.6783 19.713 24.6783 19.719 24.6783 19.713C24.6783 19.689 24.6853 19.666 24.6893 19.644C24.6939 19.6193 24.6999 19.595 24.7073 19.571V19.558C24.7143 19.537 24.7223 19.516 24.7293 19.496C24.7286 19.493 24.7286 19.49 24.7293 19.487C24.7393 19.463 24.7503 19.44 24.7623 19.417C24.7765 19.389 24.7926 19.3619 24.8103 19.336C24.8214 19.3188 24.8338 19.3024 24.8473 19.287C24.863 19.2659 24.8804 19.2462 24.8993 19.228C24.9063 19.2197 24.914 19.212 24.9223 19.205C24.9408 19.186 24.9605 19.1683 24.9813 19.152C31.738 13.6121 40.1247 10.4402 48.8564 10.1223C57.5881 9.80446 66.1833 12.3581 73.325 17.392C80.4666 22.4259 85.7609 29.6624 88.3968 37.9929C91.0326 46.3233 90.8645 55.2882 87.9183 63.514C86.3737 67.8173 84.0942 71.8199 81.1813 75.344Z" fill="#343A42"/>
<path d="M73.9244 80.132C67.1624 85.456 59.0244 88.264 50.3334 88.265C40.1853 88.2636 30.4532 84.2317 23.2774 77.0559C16.1016 69.8801 12.0697 60.1481 12.0684 50C12.0684 41.307 14.8774 33.171 20.2014 26.409L29.3484 35.556C29.1384 36.1159 28.8997 36.6646 28.6334 37.2C26.7634 40.811 24.8334 49.2 24.7584 49.552C23.6944 54.038 23.5454 58.218 24.3134 61.973C24.9016 64.9332 26.1304 67.7289 27.9134 70.164C30.9354 74.271 34.5134 75.926 34.6624 75.994L34.6764 76C39.4334 78.062 44.3664 79.164 49.3444 79.273L49.7494 79.28H49.7674H50.1784H50.6694C50.6694 79.28 50.9744 79.28 51.1264 79.27H51.1754C53.7703 79.2032 56.3511 78.8647 58.8754 78.26C62.1204 77.4838 65.1701 76.0458 67.8334 74.036L73.9244 80.132Z" fill="#343A42"/>
<path d="M88.5985 50C88.5985 58.693 85.7895 66.829 80.4655 73.591L73.9335 67.062C75.6545 64.025 76.6185 60.635 76.8015 56.984C76.9565 53.9 76.5575 50.627 75.6155 47.253C74.0155 41.532 71.4425 37.541 71.3335 37.375C71.2461 37.239 71.1207 37.1316 70.973 37.066C70.8252 37.0004 70.6615 36.9795 70.502 37.0059C70.3425 37.0322 70.1942 37.1047 70.0754 37.2144C69.9566 37.3241 69.8725 37.4661 69.8335 37.623C68.9735 41.009 66.9485 42.708 65.7275 43.453C64.7495 35.227 60.9435 29.606 57.8445 26.292C54.3185 22.521 50.9925 20.869 50.8525 20.8C50.7132 20.7321 50.5577 20.7046 50.4037 20.7207C50.2496 20.7367 50.103 20.7955 49.9807 20.8906C49.8584 20.9857 49.7651 21.1131 49.7115 21.2584C49.6579 21.4038 49.6462 21.5613 49.6775 21.713C50.2455 24.437 47.6845 29.534 42.6365 35.768L26.7365 19.868C33.4985 14.544 41.6365 11.736 50.3275 11.735C60.4767 11.7347 70.2103 15.7659 77.3874 22.9419C84.5645 30.1179 88.5972 39.8508 88.5985 50Z" fill="#343A42"/>
<path d="M69.6275 62.753L64.0945 57.22L67.1065 56.173C67.7326 55.9423 68.339 55.6611 68.9195 55.332C68.9405 55.412 68.9605 55.493 68.9805 55.574C69.6045 58.125 69.8205 60.534 69.6275 62.753Z" fill="#343A42"/>
<path d="M58.8404 51.967L50.1264 43.253C50.4034 42.884 50.6724 42.514 50.9354 42.147C52.0184 40.63 52.9354 39.224 53.7044 37.88C56.6424 41.5 58.3334 45.814 58.7394 50.73L58.8404 51.967Z" fill="#343A42"/>
<path d="M72.7184 65.844L71.1114 64.238C71.5594 61.468 71.3824 58.424 70.5894 55.181C70.4754 54.714 70.3534 54.257 70.2244 53.821C70.1882 53.6967 70.1234 53.5826 70.035 53.488C69.9466 53.3934 69.8372 53.3208 69.7157 53.2763C69.5941 53.2317 69.4638 53.2163 69.3352 53.2314C69.2066 53.2464 69.0834 53.2915 68.9754 53.363C68.2214 53.8711 67.4106 54.2893 66.5594 54.609L62.7934 55.919L60.6524 53.778L60.3904 50.594C59.9204 44.894 57.8294 39.948 54.1744 35.882C54.0856 35.7839 53.9745 35.7085 53.8504 35.6623C53.7264 35.6161 53.5931 35.6003 53.4617 35.6162C53.3303 35.6322 53.2047 35.6795 53.0953 35.7541C52.986 35.8287 52.8962 35.9285 52.8334 36.045C51.864 37.8257 50.7811 39.5422 49.5914 41.184C49.3824 41.478 49.1664 41.774 48.9494 42.07L43.8254 36.946C47.3334 32.634 51.0994 27.12 51.4014 23.027C53.3243 24.2717 55.0856 25.7496 56.6454 27.427C59.7134 30.709 63.5174 36.387 64.2094 44.799C64.2195 44.9253 64.2585 45.0477 64.3233 45.1565C64.3882 45.2654 64.4772 45.3579 64.5835 45.4269C64.6899 45.4959 64.8106 45.5396 64.9365 45.5545C65.0623 45.5694 65.1899 45.5552 65.3094 45.513C65.4784 45.454 69.0264 44.172 70.8514 39.835C72.1893 42.3344 73.2525 44.9715 74.0224 47.7C75.9424 54.572 75.5024 60.67 72.7184 65.844Z" fill="#343A42"/>
<path d="M42.9835 49.191L36.0995 56.513L35.5115 45.649C35.494 45.3368 35.4606 45.0257 35.4115 44.717C35.3844 44.5412 35.3014 44.3788 35.1748 44.2539C35.0482 44.1289 34.8847 44.0481 34.7086 44.0233C34.5325 43.9985 34.353 44.0311 34.1969 44.1162C34.0407 44.2013 33.9161 44.3345 33.8415 44.496C33.6505 44.911 33.5225 45.162 33.4975 45.207C32.3575 47.415 30.8095 53.152 30.1025 56.256L30.0905 56.3C28.5905 62.642 29.2485 67.927 32.0545 72.01C32.1865 72.203 32.3215 72.388 32.4545 72.568C31.2491 71.5766 30.1712 70.4396 29.2455 69.183C25.5095 64.106 24.5405 57.63 26.3655 49.927C26.3845 49.842 28.3255 41.385 30.0935 37.968C30.1065 37.942 30.3265 37.52 30.6165 36.83L42.9835 49.191Z" fill="#343A42"/>
<path d="M65.6627 71.869C63.4627 74.269 60.4917 76.012 57.2097 76.8C55.2096 77.2793 53.1655 77.5517 51.1097 77.613C50.6697 77.626 50.2297 77.629 49.7937 77.624H49.7757C45.6847 77.569 41.6097 76.683 37.6597 74.991C37.3127 74.807 35.1657 73.601 33.4257 71.071C30.8957 67.39 30.3177 62.549 31.7057 56.692L31.7167 56.648C31.7192 56.6426 31.7209 56.6369 31.7217 56.631C32.2327 54.39 33.1547 50.931 34.0057 48.414L34.5527 58.535C34.5615 58.6968 34.6177 58.8525 34.7142 58.9827C34.8107 59.1129 34.9433 59.212 35.0955 59.2676C35.2478 59.3232 35.413 59.3328 35.5707 59.2954C35.7284 59.2579 35.8716 59.175 35.9827 59.057L44.1577 50.357L65.6627 71.869Z" fill="#343A42"/>
</svg>
