<svg width="35" height="24" viewBox="0 0 35 24" fill="none" xmlns="http://www.w3.org/2000/svg">
<path d="M1.84791 23.4492C1.10125 23.4492 0.797913 23.0992 0.937912 22.3992L4.71791 0.909216C4.81125 0.302549 5.13791 -0.000782013 5.69791 -0.000782013H16.8279C17.2012 -0.000782013 17.4812 0.115885 17.6679 0.349218C17.8079 0.582552 17.8079 0.885883 17.6679 1.25922L11.0179 22.6092C10.8779 23.1692 10.5046 23.4492 9.89791 23.4492H1.84791ZM18.4379 23.4492C17.6912 23.4492 17.3879 23.0992 17.5279 22.3992L21.3079 0.909216C21.4012 0.302549 21.7279 -0.000782013 22.2879 -0.000782013H33.4179C33.7912 -0.000782013 34.0712 0.115885 34.2579 0.349218C34.3979 0.582552 34.3979 0.885883 34.2579 1.25922L27.6079 22.6092C27.4679 23.1692 27.0946 23.4492 26.4879 23.4492H18.4379Z" fill="white"/>
</svg>
