<svg width="100" height="100" viewBox="0 0 100 100" fill="none" xmlns="http://www.w3.org/2000/svg">
<path d="M12.9432 27.143H23.9622V42.796H12.9432V27.143Z" fill="#343A42"/>
<path d="M87.0573 7.5V92.5H16.0703V74.481H20.8353V86.924C20.8355 87.1393 20.9212 87.3457 21.0734 87.4979C21.2256 87.6501 21.432 87.7357 21.6473 87.736H81.4803C81.6956 87.736 81.9021 87.6505 82.0544 87.4982C82.2067 87.3459 82.2923 87.1394 82.2923 86.924V13.076C82.2923 12.8606 82.2067 12.6541 82.0544 12.5018C81.9021 12.3496 81.6956 12.264 81.4803 12.264H21.6473C21.432 12.2643 21.2256 12.3499 21.0734 12.5021C20.9212 12.6543 20.8355 12.8607 20.8353 13.076V25.519H16.0703V7.5H87.0573Z" fill="#343A42"/>
<path d="M16.0703 44.42H20.8343V55.579H16.0703V44.42Z" fill="#343A42"/>
<path d="M12.9432 57.204H23.9622V72.857H12.9432V57.204Z" fill="#343A42"/>
<path d="M22.459 13.889V25.519H24.774C24.8807 25.519 24.9863 25.54 25.0848 25.5808C25.1833 25.6217 25.2728 25.6815 25.3482 25.7569C25.4236 25.8323 25.4834 25.9218 25.5242 26.0203C25.565 26.1188 25.586 26.2244 25.586 26.331V43.608C25.5862 43.7147 25.5653 43.8204 25.5245 43.9189C25.4837 44.0175 25.4239 44.1071 25.3485 44.1825C25.2731 44.2579 25.1835 44.3177 25.0849 44.3585C24.9864 44.3993 24.8807 44.4202 24.774 44.42H22.459V55.58H24.774C24.8807 55.5799 24.9864 55.6008 25.0849 55.6416C25.1835 55.6823 25.2731 55.7421 25.3485 55.8176C25.4239 55.893 25.4837 55.9826 25.5245 56.0811C25.5653 56.1797 25.5862 56.2854 25.586 56.392V73.669C25.586 73.7757 25.565 73.8813 25.5242 73.9798C25.4834 74.0783 25.4236 74.1678 25.3482 74.2432C25.2728 74.3186 25.1833 74.3784 25.0848 74.4192C24.9863 74.46 24.8807 74.481 24.774 74.481H22.459V86.111H80.668V13.889H22.459ZM72.9201 56.389C72.9198 56.6043 72.8342 56.8107 72.6819 56.9629C72.5297 57.1151 72.3233 57.2008 72.1081 57.201H34.147C33.9317 57.201 33.7252 57.1155 33.5729 56.9632C33.4206 56.8109 33.335 56.6044 33.335 56.389V24.013C33.3349 23.9064 33.3558 23.8007 33.3966 23.7021C33.4373 23.6036 33.4972 23.514 33.5726 23.4386C33.648 23.3631 33.7376 23.3033 33.8362 23.2626C33.9347 23.2218 34.0404 23.2009 34.147 23.201H72.1081C72.2147 23.201 72.3203 23.222 72.4188 23.2628C72.5173 23.3037 72.6068 23.3635 72.6822 23.4389C72.7576 23.5143 72.8174 23.6038 72.8582 23.7023C72.899 23.8008 72.9201 23.9064 72.9201 24.013V56.389Z" fill="#343A42"/>
<path d="M34.9595 24.825V55.58H71.3005V24.825H34.9595ZM60.8185 37.769L50.4365 52.821C50.3618 52.9294 50.2619 53.018 50.1453 53.0791C50.0288 53.1403 49.8991 53.1721 49.7675 53.172C49.6544 53.1727 49.5424 53.1489 49.4395 53.102C49.2664 53.0254 49.1255 52.8907 49.0411 52.7213C48.9568 52.5518 48.9342 52.3582 48.9775 52.174L50.9005 44.01L46.4495 46.1C46.2925 46.1738 46.116 46.1953 45.9459 46.1614C45.7758 46.1275 45.6211 46.04 45.5044 45.9116C45.3877 45.7833 45.3152 45.621 45.2976 45.4484C45.28 45.2759 45.3181 45.1022 45.4065 44.953L55.6255 27.631C55.7212 27.4619 55.8744 27.3327 56.0572 27.2669C56.24 27.2011 56.4404 27.2031 56.6219 27.2724C56.8034 27.3417 56.954 27.4739 57.0464 27.6448C57.1388 27.8157 57.1669 28.0141 57.1255 28.204L54.9995 38.794L59.8145 36.57C59.9763 36.4947 60.1584 36.4748 60.3327 36.5134C60.5069 36.5521 60.6636 36.647 60.7784 36.7836C60.8933 36.9202 60.9599 37.0909 60.9681 37.2692C60.9762 37.4474 60.9254 37.6235 60.8235 37.77L60.8185 37.769Z" fill="#343A42"/>
<path d="M52.8611 42.748C52.8895 42.6286 52.8905 42.5043 52.864 42.3845C52.8375 42.2647 52.7842 42.1525 52.708 42.0562C52.6319 41.96 52.5349 41.8823 52.4245 41.8289C52.314 41.7755 52.1928 41.7478 52.0701 41.748C51.9511 41.7478 51.8336 41.7741 51.7261 41.825L48.1411 43.507L54.5821 32.592L53.0821 40.041C53.0519 40.1882 53.0631 40.341 53.1146 40.4823C53.166 40.6235 53.2557 40.7477 53.3735 40.841C53.4914 40.9343 53.6329 40.9931 53.7822 41.0107C53.9315 41.0284 54.0827 41.0042 54.2191 40.941L57.8001 39.289L51.5471 48.355L52.8611 42.748Z" fill="#343A42"/>
</svg>
