<svg width="100" height="100" viewBox="0 0 100 100" fill="none" xmlns="http://www.w3.org/2000/svg">
<path fill-rule="evenodd" clip-rule="evenodd" d="M65.4996 73.1866H34.4991C33.6783 73.1866 33.0469 72.5552 33.0469 71.7344C33.0469 57.781 29.7638 52.73 26.7963 48.3104C24.2708 44.459 21.9347 40.797 21.9347 32.8417C21.9347 17.373 34.4991 4.80859 49.9678 4.80859C65.4996 4.80859 78.064 17.373 78.064 32.8417C78.064 40.797 75.6648 44.459 73.1393 48.3104C70.2349 52.73 66.9518 57.781 66.9518 71.7344C66.9518 72.5552 66.2573 73.1866 65.4996 73.1866ZM29.5112 33.6625C29.9532 33.6625 30.332 33.2836 30.332 32.8417C30.332 21.982 39.1081 13.1428 49.9678 13.1428C50.4097 13.1428 50.7886 12.8271 50.7886 12.3851C50.7886 11.9431 50.4097 11.5643 49.9678 11.5643C38.2242 11.5643 28.6904 21.0981 28.6904 32.8417C28.6904 33.2836 29.0692 33.6625 29.5112 33.6625Z" fill="#343A42"/>
<path fill-rule="evenodd" clip-rule="evenodd" d="M62.2793 80.7624H37.7188C36.898 80.7624 36.2666 80.131 36.2666 79.3103V74.8906H63.7315V79.3103C63.7315 80.131 63.1001 80.7624 62.2793 80.7624Z" fill="#343A42"/>
<path fill-rule="evenodd" clip-rule="evenodd" d="M59.7543 88.3386H40.2448C39.424 88.3386 38.7926 87.7072 38.7926 86.8864V82.4668H61.2064V86.8864C61.2064 87.7072 60.5119 88.3386 59.7543 88.3386Z" fill="#343A42"/>
<path fill-rule="evenodd" clip-rule="evenodd" d="M49.9676 95.0328C46.8107 95.0328 43.9695 93.0755 42.4542 90.0449H57.5441C55.9657 93.0755 53.1876 95.0328 49.9676 95.0328Z" fill="#343A42"/>
</svg>
