<svg width="18" height="20" viewBox="0 0 18 20" fill="none" xmlns="http://www.w3.org/2000/svg">
<path d="M10.9284 0.0820312H6.95722C3.13491 0.0820312 0.00756836 3.20937 0.00756836 7.03168V10.0101C0.00756836 12.6907 1.57124 15.1479 3.9788 16.2896V19.6155C3.9788 19.9134 4.3511 20.0623 4.54966 19.8389L7.4288 16.9598H10.9284C14.7508 16.9598 17.8781 13.8324 17.8781 10.0101V7.03168C17.8781 3.20937 14.7508 0.0820312 10.9284 0.0820312ZM13.5346 13.1126L12.5169 14.1054C11.4497 15.1479 8.69463 13.9565 6.26225 11.4745C3.82988 8.99247 2.76261 6.21261 3.78024 5.17017L4.77304 4.17736C5.14534 3.80506 5.76585 3.82988 6.18779 4.20218L7.62736 5.69139C8.14859 6.21261 7.9252 7.10614 7.25506 7.3047C6.78348 7.45362 6.46081 7.97485 6.60973 8.44643C6.85794 9.53852 8.24787 10.9284 9.29031 11.2015C9.7619 11.3008 10.2831 11.0525 10.4569 10.581C10.6802 9.91082 11.5738 9.71226 12.0702 10.2335L13.5097 11.7227C13.9069 12.0702 13.9069 12.6907 13.5346 13.1126ZM9.83636 4.79786C9.73708 4.79786 9.6378 4.79786 9.53852 4.82268C9.36477 4.84751 9.19103 4.69858 9.16621 4.52484C9.14139 4.3511 9.29031 4.17736 9.46405 4.15254C9.58815 4.12772 9.71226 4.12772 9.83636 4.12772C11.6482 4.12772 13.1374 5.61693 13.1374 7.4288C13.1374 7.5529 13.1374 7.677 13.1126 7.80111C13.0878 7.97485 12.9141 8.12377 12.7403 8.09895C12.5666 8.07413 12.4177 7.90039 12.4425 7.72664C12.4425 7.62736 12.4673 7.52808 12.4673 7.4288C12.4921 5.98923 11.3007 4.79786 9.83636 4.79786ZM11.822 7.45362C11.822 7.62736 11.673 7.77629 11.4993 7.77629C11.3256 7.77629 11.1766 7.62736 11.1766 7.45362C11.1766 6.73384 10.581 6.13815 9.86118 6.13815C9.68744 6.13815 9.53852 5.98923 9.53852 5.81549C9.53852 5.64175 9.68744 5.49283 9.86118 5.49283C10.9284 5.46801 11.822 6.36154 11.822 7.45362ZM14.3536 8.52089C14.304 8.69463 14.1302 8.81873 13.9317 8.76909C13.7579 8.71945 13.6587 8.54571 13.7083 8.37197C13.7828 8.07413 13.8076 7.77629 13.8076 7.45362C13.8076 5.26945 12.0205 3.4824 9.83636 3.4824C9.73708 3.4824 9.6378 3.4824 9.53852 3.4824C9.36477 3.4824 9.19103 3.35829 9.19103 3.18455C9.19103 3.01081 9.31513 2.83707 9.48888 2.83707C9.61298 2.83707 9.73708 2.81225 9.83636 2.81225C12.3928 2.81225 14.4777 4.89715 14.4777 7.45362C14.4777 7.80111 14.4281 8.17341 14.3536 8.52089Z" fill="#C4FA04"/>
</svg>
