<svg width="100" height="100" viewBox="0 0 100 100" fill="none" xmlns="http://www.w3.org/2000/svg">
<path d="M90.1507 44.8201C90.1488 44.3335 90.0984 43.8482 90.0004 43.3716L88.9687 38.5066C88.9014 38.1975 88.7306 37.9206 88.4846 37.7218C88.2386 37.523 87.9321 37.4142 87.6158 37.4133H87.4661V33.7809C87.4661 33.5997 87.3941 33.4259 87.266 33.2978C87.1378 33.1696 86.964 33.0977 86.7828 33.0977C86.6016 33.0977 86.4278 33.1696 86.2997 33.2978C86.1715 33.4259 86.0995 33.5997 86.0995 33.7809V37.4133H85.846C85.5245 37.4131 85.213 37.5249 84.9649 37.7293C84.7168 37.9338 84.5476 38.2183 84.4863 38.5339L83.5434 43.4399C83.4618 43.8747 83.4206 44.3162 83.4204 44.7586V45.2574H90.1507V44.8201Z" fill="#343A42"/>
<path d="M83.4196 68.0729C83.4198 68.4389 83.5652 68.7899 83.824 69.0487C84.0829 69.3075 84.4338 69.453 84.7998 69.4532H86.2142V72.3278C86.2131 73.1206 85.8977 73.8807 85.3371 74.4414C84.7764 75.002 84.0163 75.3174 83.2235 75.3185H59.7027V69.0637H68.5513C69.8301 69.0623 71.0562 68.5537 71.9605 67.6494C72.8648 66.7452 73.3736 65.5192 73.3753 64.2404V59.3337H74.6735C74.8553 59.3343 75.0354 59.2991 75.2035 59.2301C75.3716 59.161 75.5245 59.0595 75.6533 58.9313C75.7821 58.8031 75.8844 58.6507 75.9543 58.4829C76.0242 58.3151 76.0603 58.1352 76.0606 57.9535V39.2451H69.3234V57.9535C69.3236 58.1352 69.3597 58.3151 69.4296 58.4829C69.4995 58.6507 69.6018 58.8031 69.7306 58.9313C69.8595 59.0595 70.0123 59.161 70.1805 59.2301C70.3486 59.2991 70.5287 59.3343 70.7104 59.3337H72.0087V64.2418C72.0072 65.1581 71.6424 66.0364 70.9943 66.6842C70.3462 67.332 69.4676 67.6962 68.5513 67.6971H59.7027V16.8811C59.7011 15.8522 59.2916 14.866 58.5641 14.1385C57.8367 13.411 56.8504 13.0016 55.8216 13H11.5173C10.4884 13.0016 9.50222 13.411 8.77473 14.1385C8.04724 14.866 7.63782 15.8522 7.6362 16.8811V83.1189C7.63782 84.1478 8.04724 85.134 8.77473 85.8615C9.50222 86.589 10.4884 86.9984 11.5173 87H55.8216C56.8504 86.9984 57.8367 86.589 58.5641 85.8615C59.2916 85.134 59.7011 84.1478 59.7027 83.1189V76.6851H83.2248C84.3798 76.6835 85.4871 76.2238 86.3037 75.407C87.1202 74.5901 87.5795 73.4828 87.5808 72.3278V69.4532H88.7615C89.1283 69.4534 89.4802 69.3082 89.7401 69.0495C90.0001 68.7908 90.147 68.4397 90.1486 68.0729V49.3577H83.4182L83.4196 68.0729ZM33.6694 80.9734C31.135 80.9734 28.6575 80.2219 26.5502 78.8138C24.4428 77.4057 22.8004 75.4044 21.8305 73.0629C20.8606 70.7214 20.6068 68.1448 21.1013 65.6591C21.5957 63.1733 22.8162 60.89 24.6083 59.0979C26.4004 57.3058 28.6837 56.0853 31.1695 55.5909C33.6552 55.0965 36.2318 55.3502 38.5733 56.3201C40.9148 57.29 42.9161 58.9324 44.3242 61.0398C45.7323 63.1471 46.4838 65.6246 46.4838 68.159C46.48 71.5565 45.1287 74.8136 42.7264 77.216C40.324 79.6183 37.0669 80.9696 33.6694 80.9734ZM53.754 44.0479C53.7533 44.6533 53.5124 45.2337 53.0844 45.6618C52.6563 46.0899 52.0758 46.3307 51.4704 46.3314H39.9509C39.7697 46.3314 39.5959 46.2594 39.4677 46.1313C39.3396 46.0032 39.2676 45.8294 39.2676 45.6481C39.2676 44.1828 38.6855 42.7775 37.6494 41.7413C36.6132 40.7052 35.2079 40.1231 33.7425 40.1231C32.2772 40.1231 30.8719 40.7052 29.8357 41.7413C28.7996 42.7775 28.2175 44.1828 28.2175 45.6481C28.2175 45.8294 28.1455 46.0032 28.0174 46.1313C27.8892 46.2594 27.7154 46.3314 27.5342 46.3314H16.0147C15.4093 46.3307 14.8288 46.0899 14.4008 45.6618C13.9727 45.2337 13.7318 44.6533 13.7311 44.0479V22.5435C13.7318 21.9381 13.9727 21.3578 14.4008 20.9298C14.8289 20.5018 15.4093 20.2612 16.0147 20.2606H51.4704C52.0758 20.2612 52.6562 20.5018 53.0843 20.9298C53.5124 21.3578 53.7533 21.9381 53.754 22.5435V44.0479Z" fill="#343A42"/>
<path d="M91.6809 46.627H81.8839C81.7027 46.627 81.5289 46.6989 81.4008 46.8271C81.2726 46.9552 81.2006 47.129 81.2006 47.3102C81.2006 47.4915 81.2726 47.6653 81.4008 47.7934C81.5289 47.9215 81.7027 47.9935 81.8839 47.9935H91.6809C91.8621 47.9935 92.0359 47.9215 92.1641 47.7934C92.2922 47.6653 92.3642 47.4915 92.3642 47.3102C92.3642 47.129 92.2922 46.9552 92.1641 46.8271C92.0359 46.6989 91.8621 46.627 91.6809 46.627Z" fill="#343A42"/>
<path d="M76.0609 34.7009C76.0589 34.2165 76.0086 33.7335 75.9106 33.2592L74.8788 28.3942C74.8119 28.0843 74.6414 27.8066 74.3955 27.6066C74.1496 27.4066 73.8429 27.2964 73.5259 27.2941H73.3756V23.6638C73.3756 23.4825 73.3036 23.3087 73.1755 23.1806C73.0473 23.0525 72.8735 22.9805 72.6923 22.9805C72.5111 22.9805 72.3373 23.0525 72.2091 23.1806C72.081 23.3087 72.009 23.4825 72.009 23.6638V27.2941H71.7562C71.4337 27.2941 71.1213 27.4067 70.873 27.6126C70.6247 27.8184 70.4562 28.1045 70.3965 28.4215L69.4535 33.3275C69.3691 33.762 69.3256 34.2036 69.3237 34.6462V35.145H76.0609V34.7009Z" fill="#343A42"/>
<path d="M67.7941 37.8783H77.5911C77.7723 37.8783 77.9461 37.8063 78.0742 37.6782C78.2024 37.55 78.2743 37.3762 78.2743 37.195C78.2743 37.0138 78.2024 36.84 78.0742 36.7118C77.9461 36.5837 77.7723 36.5117 77.5911 36.5117H67.7941C67.6129 36.5117 67.4391 36.5837 67.3109 36.7118C67.1828 36.84 67.1108 37.0138 67.1108 37.195C67.1108 37.3762 67.1828 37.55 67.3109 37.6782C67.4391 37.8063 67.6129 37.8783 67.7941 37.8783Z" fill="#343A42"/>
<path d="M33.6695 56.7109C31.6762 56.7088 29.717 57.2277 27.9861 58.2162C26.2551 59.2047 24.8126 60.6284 23.8016 62.3462C22.7905 64.0641 22.246 66.0163 22.222 68.0095C22.198 70.0026 22.6954 71.9674 23.6648 73.7091L39.2171 58.1527C37.5214 57.2061 35.6115 56.7098 33.6695 56.7109Z" fill="#343A42"/>
<path d="M33.6697 79.6073C35.6625 79.6092 37.6212 79.0903 39.3518 78.1022C41.0823 77.114 42.5246 75.6908 43.5357 73.9736C44.5469 72.2564 45.0918 70.3048 45.1165 68.3121C45.1412 66.3195 44.6448 64.355 43.6765 62.6133L28.1235 78.1656C29.8188 79.1118 31.7282 79.6082 33.6697 79.6073Z" fill="#343A42"/>
<path d="M40.391 58.9121L24.4233 74.8792C25.1295 75.8481 25.9825 76.7011 26.9515 77.4073L42.9172 61.4389C42.2116 60.4704 41.3593 59.6179 40.391 58.9121Z" fill="#343A42"/>
<path d="M51.4709 21.627H16.0151C15.772 21.627 15.5389 21.7235 15.3669 21.8953C15.195 22.0671 15.0983 22.3002 15.0981 22.5432V44.0477C15.0983 44.2908 15.195 44.5239 15.3669 44.6959C15.5388 44.8678 15.7719 44.9644 16.0151 44.9646H26.8848C27.0541 43.262 27.8492 41.6828 29.1162 40.5329C30.3833 39.3831 32.032 38.7444 33.743 38.7406C34.5323 38.7424 35.3153 38.8811 36.0573 39.1505L38.4002 34.1892C38.4776 34.0253 38.617 33.8988 38.7876 33.8376C38.9582 33.7764 39.1461 33.7855 39.31 33.8629C39.474 33.9403 39.6004 34.0796 39.6616 34.2502C39.7228 34.4209 39.7137 34.6088 39.6363 34.7727L37.2913 39.7334C38.2113 40.2884 38.9894 41.0501 39.5638 41.9581C40.1382 42.8662 40.4931 43.8955 40.6004 44.9646H51.4709C51.714 44.9644 51.9471 44.8678 52.119 44.6959C52.291 44.5239 52.3876 44.2908 52.3878 44.0477V22.5432C52.3876 22.3002 52.291 22.0671 52.119 21.8953C51.9471 21.7235 51.7139 21.627 51.4709 21.627ZM21.4875 35.9603C21.3746 36.102 21.21 36.193 21.03 36.2134C20.85 36.2337 20.6692 36.1818 20.5275 36.0689L17.2306 33.4403C17.0888 33.3274 16.9977 33.1628 16.9773 32.9827C16.9568 32.8026 17.0088 32.6217 17.1217 32.4799C17.2346 32.3381 17.3992 32.247 17.5793 32.2266C17.7594 32.2061 17.9402 32.2581 18.082 32.371L21.3789 35.0002C21.5206 35.1132 21.6116 35.2777 21.632 35.4578C21.6524 35.6378 21.6004 35.8185 21.4875 35.9603ZM26.9012 31.6023C26.8203 31.6412 26.7326 31.6638 26.6429 31.6688C26.5533 31.6738 26.4636 31.6611 26.3789 31.6314C26.2941 31.6017 26.2161 31.5556 26.1492 31.4957C26.0823 31.4359 26.0279 31.3634 25.989 31.2825L24.1599 27.4834C24.116 27.4021 24.0891 27.3128 24.0808 27.2208C24.0725 27.1288 24.0829 27.0361 24.1114 26.9483C24.1399 26.8604 24.1859 26.7793 24.2466 26.7097C24.3074 26.6401 24.3816 26.5836 24.4648 26.5435C24.548 26.5035 24.6385 26.4807 24.7307 26.4765C24.823 26.4724 24.9151 26.487 25.0016 26.5195C25.088 26.552 25.167 26.6016 25.2337 26.6655C25.3005 26.7293 25.3535 26.8061 25.3898 26.891L27.2196 30.6901C27.2983 30.8533 27.309 31.041 27.2493 31.2121C27.1896 31.3832 27.0644 31.5235 26.9012 31.6023ZM34.3531 29.3406C34.3531 29.5218 34.2812 29.6956 34.153 29.8237C34.0249 29.9519 33.8511 30.0239 33.6699 30.0239C33.4886 30.0239 33.3148 29.9519 33.1867 29.8237C33.0586 29.6956 32.9866 29.5218 32.9866 29.3406V25.124C32.9866 24.9428 33.0586 24.769 33.1867 24.6409C33.3148 24.5127 33.4886 24.4407 33.6699 24.4407C33.8511 24.4407 34.0249 24.5127 34.153 24.6409C34.2812 24.769 34.3531 24.9428 34.3531 25.124V29.3406ZM43.1949 27.4205L41.365 31.2196C41.3284 31.3041 41.2752 31.3803 41.2084 31.4437C41.1416 31.5071 41.0627 31.5563 40.9764 31.5884C40.8901 31.6205 40.7983 31.6349 40.7063 31.6306C40.6143 31.6263 40.5242 31.6035 40.4413 31.5635C40.3583 31.5235 40.2843 31.4672 40.2237 31.3979C40.1631 31.3286 40.1171 31.2477 40.0885 31.1602C40.06 31.0727 40.0493 30.9803 40.0573 30.8886C40.0653 30.7969 40.0918 30.7078 40.1351 30.6265L41.9643 26.8281C42.0477 26.6734 42.1876 26.5567 42.3549 26.5025C42.5221 26.4482 42.7038 26.4605 42.8622 26.5368C43.0206 26.6131 43.1435 26.7475 43.2054 26.9121C43.2672 27.0767 43.2639 27.2588 43.1949 27.4205ZM50.1644 33.3269L46.8675 35.9555C46.7976 36.0134 46.7168 36.0567 46.6299 36.0831C46.543 36.1094 46.4517 36.1181 46.3614 36.1087C46.2711 36.0994 46.1835 36.0721 46.1039 36.0285C46.0242 35.9849 45.9541 35.9259 45.8975 35.8548C45.8409 35.7838 45.799 35.7022 45.7744 35.6149C45.7497 35.5275 45.7426 35.4361 45.7537 35.3459C45.7647 35.2558 45.7937 35.1688 45.8387 35.09C45.8838 35.0111 45.9441 34.9421 46.0162 34.8868L49.3171 32.2575C49.4598 32.1543 49.6367 32.1101 49.8112 32.1341C49.9856 32.1582 50.144 32.2486 50.2533 32.3866C50.3627 32.5246 50.4146 32.6995 50.3981 32.8748C50.3817 33.0501 50.2982 33.2123 50.1651 33.3276L50.1644 33.3269Z" fill="#343A42"/>
</svg>
