<svg width="100" height="100" viewBox="0 0 100 100" fill="none" xmlns="http://www.w3.org/2000/svg">
<path fill-rule="evenodd" clip-rule="evenodd" d="M80.3516 43.4757H19.5924C17.0734 43.4757 15.0078 41.4604 15.0078 38.891V11.5847C15.0078 9.06561 17.0734 7 19.5924 7H80.3516C82.921 7 84.9363 9.06561 84.9363 11.5847V38.891C84.9363 41.4604 82.921 43.4757 80.3516 43.4757ZM66.1442 33.2484C66.1946 33.2484 66.2954 33.2484 66.3961 33.198L70.9304 31.2332L75.4647 33.198C75.6662 33.2988 75.9181 33.2988 76.1196 33.1476C76.2708 32.9965 76.3715 32.795 76.3715 32.5934L75.9181 27.6561L79.1929 23.9279C79.344 23.7768 79.3944 23.5249 79.2936 23.3234C79.2432 23.0715 79.0417 22.9203 78.8402 22.8699L74.0036 21.8119L71.4846 17.5296C71.3838 17.3281 71.1319 17.2273 70.9304 17.2273C70.7289 17.2273 70.5274 17.3281 70.3762 17.5296L67.8572 21.8119L63.0206 22.8699C62.8191 22.9203 62.6176 23.0715 62.5672 23.3234C62.5168 23.5249 62.5168 23.7768 62.668 23.9279L65.9427 27.6561L65.4893 32.5934C65.4893 32.795 65.5901 32.9965 65.7412 33.1476C65.842 33.2484 65.9931 33.2484 66.1442 33.2484ZM70.9304 29.9233C70.8297 29.9233 70.7793 29.9736 70.6785 29.9736L66.8496 31.6362L67.2526 27.505C67.2526 27.3035 67.2022 27.1523 67.1015 27.0012L64.3305 23.8776L68.4114 22.9707C68.5625 22.9203 68.7137 22.8196 68.8144 22.6684L70.9304 19.0914L73.0464 22.6684C73.1472 22.8196 73.2983 22.9203 73.4495 22.9707L77.5303 23.8776L74.7594 27.0012C74.6586 27.1523 74.6082 27.3035 74.6082 27.505L75.0113 31.6362L71.1823 29.9736C71.0816 29.9736 71.0312 29.9233 70.9304 29.9233ZM54.8086 33.2484C54.9093 33.2484 55.0605 33.2484 55.1612 33.1476C55.3628 32.9965 55.4635 32.795 55.4131 32.5934L54.9597 27.6561L58.2345 23.9279C58.3856 23.7768 58.436 23.5249 58.3856 23.3234C58.2848 23.1218 58.1337 22.9203 57.8818 22.8699L53.0452 21.8119L50.5262 17.5296C50.4254 17.3281 50.2239 17.2273 49.972 17.2273C49.7705 17.2273 49.569 17.3281 49.4682 17.5296L46.8988 21.8119L42.0622 22.8699C41.8607 22.9203 41.7096 23.1218 41.6088 23.3234C41.5584 23.5249 41.6088 23.7768 41.7599 23.9279L45.0347 27.6561L44.5813 32.5934C44.5309 32.795 44.6316 32.9965 44.8332 33.1476C44.9843 33.2988 45.2362 33.2988 45.4377 33.198L49.972 31.2332L54.5567 33.198C54.607 33.2484 54.7078 33.2484 54.8086 33.2484ZM49.972 29.9233C49.9216 29.9233 49.8209 29.9736 49.7201 29.9736L45.8912 31.6362L46.2942 27.505C46.3446 27.3035 46.2438 27.1523 46.1431 27.0012L43.3721 23.8776L47.453 22.9707C47.6545 22.9203 47.7553 22.8196 47.856 22.6684L49.972 19.0914L52.088 22.6684C52.1888 22.8196 52.3399 22.9203 52.5414 22.9707L56.5719 23.8776L53.8513 27.0012C53.7002 27.1523 53.6498 27.3035 53.6498 27.505L54.0529 31.6362L50.2239 29.9736C50.1735 29.9736 50.0728 29.9233 49.972 29.9233ZM33.8502 33.2484C34.0013 33.2484 34.1021 33.2484 34.2028 33.1476C34.4044 32.9965 34.5051 32.795 34.4547 32.5934L34.0013 27.6561L37.2761 23.9279C37.4272 23.7768 37.4776 23.5249 37.4272 23.3234C37.3264 23.1218 37.1753 22.9203 36.9738 22.8699L32.1372 21.8119L29.5678 17.5296C29.467 17.3281 29.2655 17.2273 29.064 17.2273C28.8121 17.2273 28.6106 17.3281 28.5098 17.5296L25.9908 21.8119L21.1542 22.8699C20.9023 22.9203 20.7512 23.1218 20.6504 23.3234C20.6 23.5249 20.6504 23.7768 20.8015 23.9279L24.0763 27.6561L23.6229 32.5934C23.5725 32.795 23.6732 32.9965 23.8748 33.1476C24.0259 33.2988 24.2778 33.2988 24.4793 33.198L29.064 31.2332L33.5983 33.198C33.699 33.2484 33.7494 33.2484 33.8502 33.2484ZM22.4641 23.8776L26.4946 22.9707C26.6961 22.9203 26.8472 22.8196 26.8976 22.6684L29.064 19.0914L31.18 22.6684C31.2807 22.8196 31.3815 22.9203 31.583 22.9707L35.6639 23.8776L32.8929 27.0012C32.7922 27.1523 32.6914 27.3035 32.7418 27.505L33.1448 31.6362L29.3159 29.9736C29.1144 29.9233 28.9632 29.9233 28.8121 29.9736L24.9831 31.6362L25.3358 27.505C25.3862 27.3035 25.3358 27.1523 25.1847 27.0012L22.4641 23.8776Z" fill="#343A42"/>
<path fill-rule="evenodd" clip-rule="evenodd" d="M61.6603 93.0007H42.8682C42.0622 93.0007 41.3064 92.7992 40.6515 92.4969C40.7523 92.1947 40.8026 91.9428 40.8026 91.6405V63.8303C40.8026 63.2761 40.6011 62.7723 40.2988 62.3692L46.3949 52.3435C46.546 52.0916 46.6972 51.89 46.7979 51.6381C47.4529 50.4794 48.3094 48.8672 50.375 48.8672C52.6925 48.8672 54.5566 50.7313 54.5566 52.9984V63.528H67.5548C70.0739 63.528 72.1395 65.5936 72.1395 68.1126C72.1395 69.7248 71.0815 71.2866 69.6204 72.1935C70.0739 72.8988 70.3258 73.7553 70.3258 74.6118C70.3258 76.1736 69.5701 77.5842 68.3609 78.3903C68.764 79.146 69.0159 80.0529 69.0159 80.9597C69.0159 82.8742 67.9579 84.5872 66.3457 85.494C66.6984 86.1993 66.8495 86.9551 66.8495 87.7611C66.8495 90.6329 64.532 93.0007 61.6603 93.0007Z" fill="#343A42"/>
<path fill-rule="evenodd" clip-rule="evenodd" d="M38.1323 92.9495H28.3081C27.6027 92.9495 26.9982 92.345 26.9982 91.6396V63.8294C26.9982 63.1241 27.6027 62.5195 28.3081 62.5195H38.1323C38.8377 62.5195 39.4422 63.1241 39.4422 63.8294V91.6396C39.4422 92.345 38.8377 92.9495 38.1323 92.9495Z" fill="#343A42"/>
</svg>
