<svg width="101" height="100" viewBox="0 0 101 100" fill="none" xmlns="http://www.w3.org/2000/svg">
<path d="M50.6401 84.4464C69.6477 84.4464 85.1121 68.9776 85.1121 49.9733C85.1121 30.9689 69.6477 15.5013 50.6401 15.5013C31.6324 15.5013 16.1681 30.97 16.1681 49.9733C16.1681 68.9765 31.6324 84.4464 50.6401 84.4464ZM26.4142 40.4294C28.3706 38.355 30.9769 37.4246 33.9561 37.7496C36.2074 37.9933 38.6445 38.9404 41.2342 40.5729C39.6005 37.9822 38.6546 35.5461 38.412 33.2948C38.0903 30.3179 39.0151 27.7105 41.0895 25.7541C45.8203 21.2937 55.4599 21.2937 60.1906 25.7541C62.265 27.7105 63.1898 30.3168 62.8682 33.2948C62.6256 35.5461 61.6797 37.9822 60.046 40.5729C62.6356 38.9404 65.0728 37.9933 67.3241 37.7496C70.3021 37.428 72.9095 38.355 74.8659 40.4294C79.3252 45.1601 79.3252 54.7986 74.8659 59.5294C73.1633 61.3345 70.9709 62.2704 68.4636 62.2704C68.083 62.2698 67.7026 62.249 67.3241 62.2081C65.0728 61.9643 62.6356 61.0173 60.0449 59.3836C61.6797 61.9744 62.6256 64.4126 62.8682 66.6628C63.1898 69.6409 62.265 72.2483 60.1906 74.2036C57.8258 76.4293 54.2324 77.5488 50.6401 77.5488C47.0478 77.5488 43.4543 76.436 41.0895 74.2036C39.0151 72.2483 38.0903 69.6409 38.412 66.6628C38.6546 64.4126 39.6005 61.9744 41.2353 59.3836C38.6445 61.0173 36.2074 61.9643 33.9561 62.2081C33.5776 62.249 33.1972 62.2698 32.8165 62.2704C30.3126 62.2704 28.1169 61.3345 26.4142 59.5294C21.955 54.7931 21.955 45.1546 26.4142 40.4294Z" fill="#343A42"/>
<path d="M50.64 59.4103C48.5434 59.4138 46.506 58.7148 44.8531 57.425C42.0709 60.906 40.5129 64.0721 40.208 66.8531C39.9454 69.2792 40.6587 71.3046 42.3291 72.8837C46.3677 76.6919 54.9122 76.6919 58.9508 72.8837C60.6201 71.309 61.3346 69.2792 61.0719 66.8531C60.767 64.0721 59.209 60.906 56.4269 57.425C54.7739 58.7148 52.7366 59.4138 50.64 59.4103Z" fill="#343A42"/>
<path d="M33.7613 60.4053C36.5434 60.1048 39.7095 58.5423 43.1883 55.7579C41.9019 54.1043 41.2035 52.069 41.2035 49.9739C41.2035 47.8788 41.9019 45.8434 43.1883 44.1898C39.7084 41.4076 36.5401 39.8429 33.7602 39.5424C31.3319 39.2798 29.3087 39.9932 27.7296 41.6636C23.9214 45.701 23.9214 54.2456 27.7296 58.2841C29.3043 59.9545 31.3341 60.669 33.7613 60.4053Z" fill="#343A42"/>
<path d="M60.0759 49.9744C60.0788 52.0707 59.3804 54.1078 58.0917 55.7612C61.5705 58.5434 64.7388 60.1081 67.5187 60.4085C69.9459 60.6723 71.9702 59.9578 73.5493 58.2874C77.3575 54.2489 77.3575 45.7043 73.5493 41.6668C71.9746 39.9976 69.9459 39.2831 67.5187 39.5457C64.7366 39.8462 61.5705 41.4087 58.0906 44.193C59.3789 45.8447 60.0777 47.8797 60.0759 49.9744Z" fill="#343A42"/>
<path d="M50.64 40.5407C52.7368 40.5371 54.7743 41.2365 56.4269 42.5271C59.209 39.0483 60.7748 35.88 61.0753 33.099C61.3379 30.6718 60.6302 28.6475 58.9542 27.0684C54.9156 23.2602 46.3711 23.2602 42.3325 27.0684C40.6632 28.6431 39.9488 30.6718 40.2114 33.099C40.5119 35.8811 42.0743 39.0483 44.8598 42.5271C46.5106 41.2379 48.5455 40.5386 50.64 40.5407Z" fill="#343A42"/>
<path d="M58.2687 49.9744C58.2687 48.4656 57.8213 46.9906 56.983 45.7361C56.1448 44.4816 54.9533 43.5038 53.5594 42.9264C52.1654 42.349 50.6316 42.1979 49.1517 42.4923C47.6719 42.7866 46.3126 43.5132 45.2457 44.5801C44.1789 45.647 43.4523 47.0063 43.1579 48.4861C42.8636 49.9659 43.0147 51.4998 43.5921 52.8937C44.1694 54.2877 45.1472 55.4791 46.4018 56.3174C47.6563 57.1556 49.1312 57.603 50.64 57.603C52.6625 57.6004 54.6013 56.7958 56.0314 55.3657C57.4614 53.9356 58.266 51.9968 58.2687 49.9744Z" fill="#343A42"/>
<path fill-rule="evenodd" clip-rule="evenodd" d="M50.6667 9.34995C44.5875 9.34995 38.8244 10.6833 33.65 13.0718L32.1832 9.89404C37.8081 7.29754 44.0707 5.84995 50.6667 5.84995C75.0501 5.84995 94.8167 25.6166 94.8167 49.9999C94.8167 57.4709 92.9597 64.5133 89.6805 70.6856L86.5896 69.0435C89.6067 63.3645 91.3167 56.8845 91.3167 49.9999C91.3167 27.5496 73.1171 9.34995 50.6667 9.34995ZM15.0913 30.3163C11.8583 36.1466 10.0167 42.8556 10.0167 49.9999C10.0167 72.4503 28.2163 90.6499 50.6667 90.6499C58.295 90.6499 65.4275 88.5504 71.5239 84.8987L73.3224 87.9013C66.6977 91.8694 58.9459 94.1499 50.6667 94.1499C26.2834 94.1499 6.51672 74.3833 6.51672 49.9999C6.51672 42.2467 8.51678 34.9553 12.0304 28.619L15.0913 30.3163Z" fill="#343A42"/>
</svg>
