<svg width="101" height="100" viewBox="0 0 101 100" fill="none" xmlns="http://www.w3.org/2000/svg">
<path d="M51.4863 93.2728C27.625 93.2728 8.21356 73.8614 8.21356 50.0001C8.21356 26.1388 27.625 6.72729 51.4863 6.72729C75.3476 6.72729 94.7591 26.1388 94.7591 50.0001C94.7591 73.8614 75.3476 93.2728 51.4863 93.2728ZM51.4863 8.61409C28.6661 8.61409 10.1004 27.1798 10.1004 50.0001C10.1004 72.8203 28.6661 91.386 51.4863 91.386C74.3066 91.386 92.8723 72.8203 92.8723 50.0001C92.8723 27.1798 74.3066 8.61409 51.4863 8.61409Z" fill="white"/>
<path d="M51.4843 84.4875C32.4671 84.4875 16.9969 69.0173 16.9969 50.0001C16.9969 30.9829 32.4671 15.5127 51.4843 15.5127C70.5015 15.5127 85.9717 30.9829 85.9717 50.0001C85.9717 69.0173 70.5015 84.4875 51.4843 84.4875ZM51.4843 17.3995C33.5082 17.3995 18.8837 32.024 18.8837 50.0001C18.8837 67.9762 33.5082 82.6007 51.4843 82.6007C69.4604 82.6007 84.0849 67.9762 84.0849 50.0001C84.0849 32.024 69.4604 17.3995 51.4843 17.3995Z" fill="white"/>
<path d="M65.6195 54.339L46.3757 66.6403C42.9263 68.8315 38.4353 66.3582 38.4353 62.2795V37.7205C38.4353 33.6418 42.9263 31.1685 46.3757 33.3597L65.6195 45.6609C68.7869 47.6786 68.7869 52.3213 65.6195 54.339Z" fill="white"/>
<path d="M43.602 68.4054C42.5978 68.4054 41.5899 68.1493 40.6594 67.6389C38.6749 66.5481 37.492 64.5452 37.492 62.2789V37.7211C37.492 35.4547 38.6749 33.4519 40.6594 32.3611C42.6401 31.2721 44.9673 31.3476 46.8817 32.5637L66.1274 44.8666C67.8871 45.9869 68.9373 47.9068 68.9373 50C68.9373 52.0931 67.8871 54.0131 66.1274 55.1334L46.8836 67.4344C45.8665 68.0811 44.7351 68.4054 43.602 68.4054ZM43.602 33.485C42.9073 33.485 42.2108 33.6619 41.5678 34.0157C40.1969 34.7674 39.3788 36.1531 39.3788 37.7211V62.2789C39.3788 63.8469 40.1969 65.2325 41.5678 65.9843C42.9386 66.7361 44.5454 66.6826 45.8683 65.8442L65.1103 53.5451C65.1103 53.5432 65.1121 53.5432 65.1121 53.5432C66.3264 52.7694 67.0505 51.4446 67.0505 50C67.0505 48.5554 66.3264 47.2306 65.1121 46.4567L45.8665 34.1539C45.1663 33.7098 44.3851 33.485 43.602 33.485Z" fill="white"/>
</svg>
