<svg width="20" height="20" viewBox="0 0 20 20" fill="none" xmlns="http://www.w3.org/2000/svg">
<path d="M13.2983 14.2971C9.53952 14.2971 6.48144 11.2371 6.48041 7.47717C6.48144 6.52406 7.25728 5.74902 8.20805 5.74902C8.3058 5.74902 8.40251 5.75726 8.49512 5.77373C8.69885 5.80769 8.89231 5.87665 9.07032 5.98061C9.09604 5.99605 9.11353 6.02075 9.11765 6.04957L9.51483 8.55378C9.51997 8.58363 9.51071 8.61245 9.49116 8.63406C9.27199 8.87697 8.99211 9.05195 8.68034 9.13944L8.53011 9.18163L8.5867 9.32676C9.09912 10.6319 10.1425 11.6745 11.4483 12.1892L11.5933 12.2468L11.6355 12.0965C11.723 11.7847 11.8979 11.5047 12.1407 11.2855C12.1582 11.269 12.1819 11.2608 12.2056 11.2608C12.2107 11.2608 12.2159 11.2608 12.222 11.2618L14.7255 11.6591C14.7554 11.6642 14.7801 11.6807 14.7955 11.7064C14.8984 11.8845 14.9673 12.079 15.0023 12.2828C15.0188 12.3734 15.026 12.4691 15.026 12.569C15.026 13.521 14.2512 14.2961 13.2983 14.2971Z" fill="#C4FA04"/>
<path d="M19.964 9.17532C19.7613 6.88416 18.7117 4.75872 17.0088 3.19115C15.2955 1.61431 13.073 0.745605 10.7485 0.745605C5.64693 0.745605 1.49609 4.89768 1.49609 10.0008C1.49609 11.7135 1.96837 13.3819 2.86254 14.8353L0.868408 19.2508L7.25315 18.5705C8.3634 19.0254 9.53847 19.256 10.7475 19.256C11.0655 19.256 11.3916 19.2395 11.7189 19.2055C12.007 19.1747 12.2982 19.1294 12.5842 19.0717C16.8565 18.2082 19.9753 14.4153 20 10.0502V10.0008C20 9.72289 19.9876 9.44498 19.9629 9.17532H19.964ZM7.49907 16.6324L3.96663 17.0091L5.02132 14.6716L4.81038 14.3886C4.79495 14.368 4.77952 14.3474 4.76202 14.3237C3.84624 13.0587 3.36262 11.5642 3.36262 10.0018C3.36262 5.92797 6.67589 2.61373 10.7485 2.61373C14.5639 2.61373 17.798 5.5914 18.1098 9.39249C18.1262 9.59629 18.1355 9.80111 18.1355 10.0028C18.1355 10.0605 18.1345 10.1171 18.1334 10.1778C18.0552 13.5857 15.6752 16.48 12.3455 17.217C12.0913 17.2736 11.831 17.3168 11.5717 17.3446C11.3021 17.3755 11.0253 17.3909 10.7506 17.3909C9.77205 17.3909 8.82129 17.2016 7.923 16.8269C7.82319 16.7868 7.72544 16.7435 7.63386 16.6993L7.5001 16.6344L7.49907 16.6324Z" fill="#C4FA04"/>
</svg>
