<svg width="21" height="20" viewBox="0 0 21 20" fill="none" xmlns="http://www.w3.org/2000/svg">
<path d="M12.9751 10.7102L11.5417 12.1484C10.9605 12.7317 9.93779 12.7443 9.34397 12.1484L7.91056 10.7102L2.76239 15.8751C2.95402 15.9637 3.16531 16.0166 3.38993 16.0166H17.4958C17.7204 16.0166 17.9316 15.9638 18.1232 15.8751L12.9751 10.7102Z" fill="#C4FA04"/>
<path d="M17.4958 3.9834H3.38993C3.1653 3.9834 2.95402 4.03628 2.76245 4.12489L8.26363 9.64433C8.264 9.64469 8.26444 9.64476 8.2648 9.64513C8.26517 9.6455 8.26524 9.646 8.26524 9.646L10.054 11.4406C10.244 11.6306 10.6418 11.6306 10.8318 11.4406L12.6202 9.6463C12.6202 9.6463 12.6206 9.6455 12.621 9.64513C12.621 9.64513 12.6218 9.64469 12.6221 9.64433L18.1232 4.12486C17.9316 4.03621 17.7204 3.9834 17.4958 3.9834Z" fill="#C4FA04"/>
<path d="M2.04572 4.82593C1.94658 5.02642 1.88574 5.24897 1.88574 5.48737V14.5124C1.88574 14.7508 1.94651 14.9734 2.04569 15.1739L7.20278 10.0001L2.04572 4.82593Z" fill="#C4FA04"/>
<path d="M18.84 4.82593L13.683 10.0001L18.84 15.174C18.9392 14.9735 19 14.751 19 14.5125V5.48743C19 5.24897 18.9392 5.02642 18.84 4.82593Z" fill="#C4FA04"/>
</svg>
