<svg width="21" height="20" viewBox="0 0 21 20" fill="none" xmlns="http://www.w3.org/2000/svg">
<path d="M18.8135 14.6C18.2672 14.1419 15.0635 12.1131 14.531 12.2063C14.281 12.2506 14.0897 12.4638 13.5779 13.0744C13.3412 13.3749 13.0812 13.6564 12.8004 13.9163C12.2859 13.792 11.7878 13.6074 11.3166 13.3663C9.46867 12.4666 7.97577 10.9732 7.07662 9.125C6.83552 8.65379 6.65091 8.15576 6.52662 7.64125C6.78645 7.36044 7.06794 7.10047 7.3685 6.86375C7.9785 6.35188 8.19225 6.16187 8.23662 5.91062C8.32975 5.37687 6.29912 2.17437 5.84287 1.62813C5.65162 1.40188 5.47787 1.25 5.25537 1.25C4.61037 1.25 1.69287 4.8575 1.69287 5.325C1.69287 5.36313 1.75537 9.11875 6.4985 13.9444C11.3241 18.6875 15.0797 18.75 15.1179 18.75C15.5854 18.75 19.1929 15.8325 19.1929 15.1875C19.1929 14.965 19.041 14.7913 18.8135 14.6Z" fill="#C4FA04"/>
<path d="M14.8179 9.375H16.0679C16.0664 8.04937 15.5391 6.77847 14.6018 5.84111C13.6644 4.90375 12.3935 4.37649 11.0679 4.375V5.625C12.0621 5.62599 13.0154 6.0214 13.7184 6.72445C14.4215 7.42749 14.8169 8.38074 14.8179 9.375Z" fill="#C4FA04"/>
<path d="M17.9429 9.375H19.1929C19.1904 7.22088 18.3336 5.15569 16.8104 3.6325C15.2872 2.1093 13.222 1.25248 11.0679 1.25V2.5C12.8906 2.50215 14.638 3.22717 15.9269 4.51602C17.2157 5.80486 17.9407 7.5523 17.9429 9.375Z" fill="#C4FA04"/>
</svg>
