<svg width="101" height="100" viewBox="0 0 101 100" fill="none" xmlns="http://www.w3.org/2000/svg">
<path d="M92.0818 58.541H9.25175C8.74041 58.5412 8.25006 58.7444 7.88839 59.1059C7.52672 59.4674 7.32328 59.9576 7.32275 60.469V83.226C7.32355 83.7372 7.52707 84.2273 7.88868 84.5887C8.2503 84.9502 8.74049 85.1534 9.25175 85.154H92.0818C92.593 85.1534 93.0832 84.9502 93.4448 84.5887C93.8064 84.2273 94.01 83.7372 94.0108 83.226V60.469C94.0102 59.9576 93.8068 59.4674 93.4451 59.1059C93.0835 58.7444 92.5931 58.5412 92.0818 58.541ZM54.2518 75.61C54.2504 76.5603 53.8723 77.4712 53.2002 78.1431C52.5281 78.815 51.6171 79.1929 50.6668 79.194H17.2098C16.2595 79.1929 15.3486 78.815 14.6767 78.1431C14.0048 77.4712 13.6268 76.5602 13.6258 75.61V68.085C13.6268 67.1347 14.0047 66.2236 14.6766 65.5515C15.3485 64.8794 16.2595 64.5013 17.2098 64.5H50.6668C51.6172 64.501 52.5285 64.8791 53.2006 65.5511C53.8727 66.2232 54.2507 67.1345 54.2518 68.085V75.61ZM63.8068 75.9C63.0053 75.9 62.2219 75.6623 61.5556 75.2171C60.8892 74.7718 60.3699 74.139 60.0632 73.3986C59.7565 72.6582 59.6763 71.8435 59.8326 71.0575C59.989 70.2714 60.3749 69.5494 60.9416 68.9828C61.5082 68.4161 62.2302 68.0302 63.0162 67.8738C63.8023 67.7175 64.617 67.7977 65.3574 68.1044C66.0978 68.4111 66.7306 68.9304 67.1759 69.5968C67.6211 70.2631 67.8588 71.0465 67.8588 71.848C67.8574 72.9222 67.4301 73.9521 66.6705 74.7117C65.9109 75.4713 64.881 75.8986 63.8068 75.9ZM73.7308 75.9C72.9293 75.9 72.1459 75.6623 71.4796 75.2171C70.8132 74.7718 70.2939 74.139 69.9872 73.3986C69.6805 72.6582 69.6003 71.8435 69.7566 71.0575C69.913 70.2714 70.2989 69.5494 70.8656 68.9828C71.4322 68.4161 72.1542 68.0302 72.9402 67.8738C73.7263 67.7175 74.541 67.7977 75.2814 68.1044C76.0218 68.4111 76.6546 68.9304 77.0999 69.5968C77.5451 70.2631 77.7828 71.0465 77.7828 71.848C77.782 72.9224 77.3548 73.9525 76.5951 74.7123C75.8354 75.472 74.8052 75.8992 73.7308 75.9ZM83.6568 75.9C82.8553 75.9002 82.0718 75.6627 81.4053 75.2176C80.7388 74.7724 80.2193 74.1397 79.9125 73.3993C79.6056 72.6589 79.5253 71.8441 79.6815 71.0581C79.8377 70.272 80.2236 69.5499 80.7902 68.9831C81.3568 68.4163 82.0788 68.0303 82.8649 67.8739C83.6509 67.7175 84.4657 67.7976 85.2062 68.1043C85.9466 68.411 86.5795 68.9303 87.0248 69.5967C87.4701 70.2631 87.7078 71.0465 87.7078 71.848C87.7064 72.922 87.2792 73.9518 86.5198 74.7113C85.7605 75.4709 84.7308 75.8984 83.6568 75.9Z" fill="#FFFFFF"/>
<path d="M50.6667 66.157H17.2097C16.6986 66.1578 16.2087 66.3612 15.8473 66.7226C15.4859 67.084 15.2825 67.5739 15.2817 68.085V75.61C15.2823 76.1212 15.4856 76.6112 15.847 76.9727C16.2085 77.3342 16.6986 77.5375 17.2097 77.538H50.6667C51.1779 77.5375 51.668 77.3342 52.0295 76.9727C52.3909 76.6112 52.5942 76.1212 52.5947 75.61V68.085C52.594 67.5739 52.3906 67.084 52.0292 66.7226C51.6678 66.3612 51.1778 66.1578 50.6667 66.157Z" fill="#FFFFFF"/>
<path d="M63.8068 74.242C65.1295 74.242 66.2018 73.1697 66.2018 71.847C66.2018 70.5242 65.1295 69.452 63.8068 69.452C62.4841 69.452 61.4118 70.5242 61.4118 71.847C61.4118 73.1697 62.4841 74.242 63.8068 74.242Z" fill="#FFFFFF"/>
<path d="M73.7308 69.452C73.2561 69.452 72.7921 69.5927 72.3974 69.8564C72.0027 70.1202 71.6951 70.495 71.5134 70.9335C71.3318 71.3721 71.2843 71.8546 71.3769 72.3202C71.4695 72.7857 71.698 73.2134 72.0337 73.549C72.3693 73.8847 72.797 74.1132 73.2625 74.2058C73.7281 74.2985 74.2106 74.2509 74.6492 74.0693C75.0877 73.8876 75.4626 73.58 75.7263 73.1853C75.99 72.7907 76.1308 72.3266 76.1308 71.852C76.1308 71.2154 75.8779 70.605 75.4278 70.1549C74.9777 69.7048 74.3673 69.452 73.7308 69.452Z" fill="#FFFFFF"/>
<path d="M83.6567 74.242C84.9794 74.242 86.0517 73.1697 86.0517 71.847C86.0517 70.5242 84.9794 69.452 83.6567 69.452C82.334 69.452 81.2617 70.5242 81.2617 71.847C81.2617 73.1697 82.334 74.242 83.6567 74.242Z" fill="#FFFFFF"/>
<path d="M31.9197 56.884H39.9077L14.1137 16.4C13.6337 15.6466 12.874 15.1148 12.0019 14.9216C11.1297 14.7283 10.2166 14.8894 9.46321 15.3695C8.70986 15.8495 8.17806 16.6092 7.98481 17.4813C7.79155 18.3534 7.95267 19.2666 8.43271 20.02L31.9197 56.884Z" fill="#FFFFFF"/>
<path d="M69.4137 56.884L92.9007 20.024C93.3813 19.2705 93.5429 18.357 93.3499 17.4844C93.1569 16.6118 92.6252 15.8516 91.8717 15.371C91.1182 14.8904 90.2047 14.7289 89.3321 14.9219C88.4595 15.1148 87.6993 15.6465 87.2187 16.4L61.4257 56.884H69.4137Z" fill="#FFFFFF"/>
<path d="M32.3737 34.0239C32.5482 34.0245 32.721 33.9904 32.8822 33.9236C33.0434 33.8568 33.1897 33.7587 33.3127 33.6349C37.919 29.0394 44.16 26.4586 50.6667 26.4586C57.1734 26.4586 63.4144 29.0394 68.0207 33.6349C68.1441 33.7583 68.2905 33.8561 68.4517 33.9228C68.6129 33.9895 68.7856 34.0238 68.9601 34.0237C69.1345 34.0237 69.3072 33.9893 69.4683 33.9225C69.6295 33.8557 69.7759 33.7578 69.8992 33.6344C70.0225 33.5111 70.1203 33.3646 70.187 33.2034C70.2537 33.0423 70.288 32.8695 70.288 32.6951C70.288 32.5207 70.2536 32.3479 70.1868 32.1868C70.12 32.0257 70.0221 31.8793 69.8987 31.7559C64.7942 26.6626 57.8777 23.8021 50.6667 23.8021C43.4557 23.8021 36.5392 26.6626 31.4347 31.7559C31.249 31.9417 31.1225 32.1783 31.0713 32.4359C31.0201 32.6935 31.0464 32.9605 31.1469 33.2031C31.2474 33.4458 31.4176 33.6532 31.6359 33.7991C31.8543 33.945 32.1111 34.0229 32.3737 34.0229V34.0239Z" fill="#FFFFFF"/>
<path d="M63.6558 37.9999C63.7787 38.1251 63.9252 38.2246 64.0867 38.2928C64.2483 38.361 64.4218 38.3966 64.5972 38.3974C64.7726 38.3981 64.9464 38.3642 65.1086 38.2974C65.2708 38.2307 65.4182 38.1324 65.5422 38.0084C65.6663 37.8844 65.7645 37.737 65.8312 37.5748C65.898 37.4126 65.932 37.2388 65.9312 37.0634C65.9304 36.888 65.8949 36.7145 65.8267 36.5529C65.7584 36.3913 65.6589 36.2449 65.5338 36.1219C61.5876 32.1851 56.241 29.9741 50.6668 29.9741C45.0926 29.9741 39.746 32.1851 35.7998 36.1219C35.6746 36.2449 35.5751 36.3913 35.5069 36.5529C35.4387 36.7145 35.4031 36.888 35.4024 37.0634C35.4016 37.2388 35.4355 37.4126 35.5023 37.5748C35.5691 37.737 35.6673 37.8844 35.7913 38.0084C35.9153 38.1324 36.0627 38.2307 36.2249 38.2974C36.3871 38.3642 36.5609 38.3981 36.7363 38.3974C36.9117 38.3966 37.0852 38.361 37.2468 38.2928C37.4084 38.2246 37.5549 38.1251 37.6778 37.9999C41.1256 34.5606 45.7968 32.6291 50.6668 32.6291C55.5367 32.6291 60.2079 34.5606 63.6558 37.9999Z" fill="#FFFFFF"/>
<path d="M60.2298 42.755C60.4922 42.7543 60.7486 42.6759 60.9666 42.5297C61.1846 42.3835 61.3544 42.176 61.4546 41.9334C61.5548 41.6908 61.5809 41.424 61.5297 41.1666C61.4785 40.9092 61.3522 40.6727 61.1668 40.487C58.3794 37.707 54.6034 36.1459 50.6668 36.1459C46.7301 36.1459 42.9541 37.707 40.1668 40.487C39.9269 40.738 39.7948 41.073 39.7988 41.4202C39.8028 41.7674 39.9424 42.0992 40.188 42.3447C40.4335 42.5903 40.7653 42.7299 41.1125 42.7339C41.4597 42.7379 41.7947 42.6058 42.0458 42.366C44.3347 40.0824 47.436 38.8 50.6693 38.8C53.9025 38.8 57.0038 40.0824 59.2928 42.366C59.4155 42.4895 59.5615 42.5875 59.7223 42.6543C59.8831 42.7211 60.0556 42.7553 60.2298 42.755Z" fill="#FFFFFF"/>
<path d="M44.5297 44.853C44.2806 45.1021 44.1408 45.44 44.1409 45.7923C44.141 46.1446 44.281 46.4824 44.5302 46.7315C44.7793 46.9805 45.1172 47.1204 45.4695 47.1203C45.8218 47.1202 46.1596 46.9801 46.4087 46.731C47.5388 45.6032 49.0701 44.9698 50.6667 44.9698C52.2632 44.9698 53.7946 45.6032 54.9247 46.731C55.1737 46.9801 55.5115 47.1202 55.8638 47.1203C56.2161 47.1204 56.554 46.9805 56.8032 46.7315C57.0523 46.4824 57.1924 46.1446 57.1925 45.7923C57.1926 45.44 57.0527 45.1021 56.8037 44.853C55.1747 43.2278 52.9677 42.3151 50.6667 42.3151C48.3657 42.3151 46.1586 43.2278 44.5297 44.853Z" fill="#FFFFFF"/>
</svg>
