<svg width="25" height="23" viewBox="0 0 25 23" fill="none" xmlns="http://www.w3.org/2000/svg">
<path d="M11.5418 0.982758C11.9937 0.136312 13.2071 0.136314 13.659 0.98276L16.761 6.79298L23.3888 7.80056C24.3735 7.95026 24.7577 9.16515 24.0381 9.85385L19.3324 14.3577L20.3807 20.7109C20.5393 21.6717 19.5477 22.4113 18.672 21.9854L12.6004 19.033L6.52883 21.9854C5.65308 22.4113 4.66153 21.6717 4.82007 20.7109L5.86839 14.3577L1.16265 9.85385C0.44309 9.16515 0.827314 7.95026 1.81202 7.80056L8.43979 6.79298L11.5418 0.982758Z" fill="#D9D9D9"/>
<path d="M11.5418 0.982758C11.9937 0.136312 13.2071 0.136314 13.659 0.98276L16.761 6.79298L23.3888 7.80056C24.3735 7.95026 24.7577 9.16515 24.0381 9.85385L19.3324 14.3577L20.3807 20.7109C20.5393 21.6717 19.5477 22.4113 18.672 21.9854L12.6004 19.033L6.52883 21.9854C5.65308 22.4113 4.66153 21.6717 4.82007 20.7109L5.86839 14.3577L1.16265 9.85385C0.44309 9.16515 0.827314 7.95026 1.81202 7.80056L8.43979 6.79298L11.5418 0.982758Z" fill="#AFE000"/>
</svg>
